<?xml version="1.0" encoding="utf-8"?>
<!-- Generator: Adobe Illustrator 28.1.0, SVG Export Plug-In . SVG Version: 6.00 Build 0)  -->
<svg version="1.1" id="Layer_1" xmlns="http://www.w3.org/2000/svg" xmlns:xlink="http://www.w3.org/1999/xlink" x="0px" y="0px"
	 viewBox="0 0 3314.15 2009.61" style="enable-background:new 0 0 3314.15 2009.61;" xml:space="preserve">
<g>
	<g>
		<path d="M115.86,280.35h31.86v12.6h-17.73v11.97h15.3v12.6h-15.3v13.23h18.18v12.6h-32.31V280.35z"/>
		<path d="M152.61,280.35h45.54v13.5h-28.89v13.59h24.3v13.5h-24.3v22.41h-16.65V280.35z"/>
		<path d="M197.25,280.35h45.54v13.5H213.9v13.59h24.3v13.5h-24.3v22.41h-16.65V280.35z"/>
		<path d="M244.59,280.35h14.4v63h-14.4V280.35z"/>
		<path d="M285.18,279.63c12.42,0,19.26,7.29,21.24,22.86l-13.95,2.7c-0.99-9.18-3.06-12.96-7.29-12.96c-5.13,0-7.2,5.67-7.2,19.62
			c0,13.95,2.07,19.62,7.2,19.62c4.41,0,6.57-3.87,7.38-13.32l14.22,2.7c-2.61,16.02-9.27,23.22-21.6,23.22
			c-14.4,0-22.05-11.16-22.05-32.22C263.13,290.88,270.78,279.63,285.18,279.63z"/>
		<path d="M310.02,280.35h14.4v63h-14.4V280.35z"/>
		<path d="M329.81,280.35h96.93v14.4h-76.23v9.18h69.12v14.4h-69.12v10.62h76.68v14.4h-97.38V280.35z"/>
		<path d="M430.44,280.35h19.26l51.21,42.84v-42.84h18.72v63h-19.26l-51.21-42.84v42.84h-18.72V280.35z"/>
		<path d="M535.27,292.95h-12.51v-12.6h39.51v12.6h-12.6v50.4h-14.4V292.95z"/>
	</g>
	<g>
		<path d="M119.1,372.58h19.51c10.94,0,17.5,6.7,17.5,18c0,11.02-6.91,17.57-18.43,17.57h-6.12v14.83H119.1V372.58z M131.56,382.73
			V398h4.9c4.75,0,7.06-2.45,7.06-7.42c0-5.33-2.3-7.85-7.06-7.85H131.56z"/>
		<path d="M156.75,372.58h35.21c12.1,0,18.94,6.41,18.94,16.49c0,8.21-5.33,14.11-14.4,15.48l16.71,18.43h-17.93l-14.83-16.85h-9.07
			v16.85h-14.62V372.58z M171.37,383.6v11.52h18c4.54,0,6.91-2.02,6.91-5.76s-2.38-5.76-6.91-5.76H171.37z"/>
		<path d="M210.97,397.78c0-16.63,8.21-25.85,21.67-25.85c13.54,0,21.67,9.22,21.67,25.85c0,16.56-8.14,25.85-21.67,25.85
			C219.18,423.64,210.97,414.35,210.97,397.78z M241.57,397.78c0-10.51-2.95-15.41-8.93-15.41c-5.9,0-8.86,4.9-8.86,15.41
			c0,10.44,2.95,15.41,8.86,15.41C238.62,413.19,241.57,408.23,241.57,397.78z"/>
		<path d="M265.91,383.38H251v-10.8h43.42v10.8h-15.19v39.6h-13.32V383.38z"/>
		<path d="M296.94,372.58h77.55v11.52H313.5v7.34h55.3v11.52h-55.3v8.5h61.35v11.52h-77.91V372.58z"/>
		<path d="M395.51,371.93c11.23,0,18.29,6.05,20.45,18.15l-12.31,2.38c-1.01-6.84-3.67-10.08-8.14-10.08
			c-5.76,0-8.64,4.97-8.64,15.41c0,10.44,2.88,15.41,8.64,15.41c4.68,0,7.34-3.31,8.21-10.37l12.31,2.3
			c-2.16,12.46-9.29,18.51-20.52,18.51c-13.83,0-21.46-9.72-21.46-25.85C374.05,381.65,382.26,371.93,395.51,371.93z"/>
		<path d="M425.1,382.66h-10.01v-10.08h31.61v10.08h-10.08v40.32H425.1V382.66z"/>
		<path d="M448.13,372.58h11.52v50.4h-11.52V372.58z"/>
		<path d="M480.68,407.58l6.55-35h11.3l-11.09,50.4h-13.83l-11.09-50.4h11.81L480.68,407.58z"/>
		<path d="M499.83,372.58h77.55v11.52h-60.99v7.34h55.3v11.52h-55.3v8.5h61.35v11.52h-77.91V372.58z"/>
	</g>
	<g>
		<path d="M135.62,466.56c13.41,0,21.69,6.84,24.57,20.79l-14.94,3.06c-1.26-7.29-4.41-10.8-9.81-10.8
			c-7.74,0-11.61,6.21-11.61,19.26c0,13.05,3.87,19.26,11.79,19.26c6.39,0,10.17-3.15,11.16-9.72h-11.43v-11.88h25.74v33.84h-10.35
			L149.3,522c-3.78,6.12-9.36,9.18-16.2,9.18c-15.48,0-25.29-12.51-25.29-32.31C107.81,478.53,118.34,466.56,135.62,466.56z"/>
		<path d="M164.51,467.37h38.7v13.05H179.9v11.43h19.8v12.87h-19.8v12.6h24.03v13.05h-39.42V467.37z"/>
		<path d="M223.91,480.87h-18.63v-13.5h54.27v13.5h-18.99v49.5h-16.65V480.87z"/>
		<path d="M262.34,467.37h57.15c17.01,0,25.92,8.19,25.92,20.79c0,10.89-7.47,18.99-21.15,20.43l24.3,21.78h-26.01l-21.51-19.8
			h-18.81v19.8h-19.89V467.37z M282.23,481.86v14.13h33.66c6.48,0,9.45-2.34,9.45-7.02c0-4.77-2.97-7.11-9.45-7.11H282.23z"/>
		<path d="M350.09,467.37h14.4v63h-14.4V467.37z"/>
		<path d="M367.64,467.37h22.23c18.63,0,28.89,11.16,28.89,31.77c0,20.25-10.26,31.23-28.89,31.23h-22.23V467.37z M402.74,499.14
			c0-12.69-4.23-18.72-12.87-18.72h-6.66v36.9h6.66C398.51,517.32,402.74,511.47,402.74,499.14z"/>
		<path d="M421.19,498.87c0-20.79,10.26-32.31,27.09-32.31c16.92,0,27.09,11.52,27.09,32.31c0,20.7-10.17,32.31-27.09,32.31
			C431.45,531.18,421.19,519.57,421.19,498.87z M459.44,498.87c0-13.14-3.69-19.26-11.16-19.26c-7.38,0-11.07,6.12-11.07,19.26
			c0,13.05,3.69,19.26,11.07,19.26C455.75,518.13,459.44,511.92,459.44,498.87z"/>
		<path d="M477.98,467.37h96.93v16.2h-75.33v11.25h68.22v16.2h-68.22v19.35h-21.6V467.37z"/>
	</g>
	<g>
		<path d="M78.76,579.4c12.42,0,19.26,7.29,21.24,22.86l-13.95,2.7c-0.99-9.18-3.06-12.96-7.29-12.96c-5.13,0-7.2,5.67-7.2,19.62
			s2.07,19.62,7.2,19.62c4.41,0,6.57-3.87,7.38-13.32l14.22,2.7c-2.61,16.02-9.27,23.22-21.6,23.22c-14.4,0-22.05-11.16-22.05-32.22
			C56.71,590.65,64.36,579.4,78.76,579.4z"/>
		<path d="M102.07,580.12h19.89v23.13h51.93v-23.13h19.98v63h-19.98v-24.57h-51.93v24.57h-19.89V580.12z"/>
		<path d="M196.12,611.62c0-19.53,12.78-32.4,32.13-32.4s32.13,12.87,32.13,32.4c0,19.44-12.78,32.4-32.13,32.4
			S196.12,631.06,196.12,611.62z M243.28,611.62c0-12.24-5.31-18.9-15.03-18.9s-15.03,6.66-15.03,18.9s5.31,18.9,15.03,18.9
			S243.28,623.86,243.28,611.62z"/>
		<path d="M261.28,611.62c0-19.53,12.78-32.4,32.13-32.4s32.13,12.87,32.13,32.4c0,19.44-12.78,32.4-32.13,32.4
			S261.28,631.06,261.28,611.62z M308.44,611.62c0-12.24-5.31-18.9-15.03-18.9s-15.03,6.66-15.03,18.9s5.31,18.9,15.03,18.9
			S308.44,623.86,308.44,611.62z"/>
		<path d="M338.76,621.79c0.36,6.66,2.79,9.9,7.47,9.9c3.87,0,6.03-1.98,6.03-5.49c0-3.42-1.71-5.13-6.75-7.11l-5.31-2.07
			c-9-3.51-13.59-9.36-13.59-18.99c0-11.61,7.38-18.63,19.53-18.63c12.15,0,18.54,6.21,20.07,19.35l-13.5,1.8
			c-0.36-6.21-2.34-9-6.3-9c-3.69,0-5.85,2.07-5.85,5.67s1.89,5.13,8.1,7.65l4.86,1.98c9.45,3.87,13.14,8.91,13.14,18.45
			c0,11.52-7.74,18.54-20.43,18.54c-13.41,0-19.26-5.67-20.97-20.25L338.76,621.79z"/>
		<path d="M368.91,580.12h96.93v14.4h-76.23v9.18h69.12v14.4h-69.12v10.62h76.68v14.4h-97.38V580.12z"/>
		<path d="M480.6,592.72h-12.51v-12.6h39.51v12.6H495v50.4h-14.4V592.72z"/>
		<path d="M508.56,580.12h14.4v24.39h12.15v-24.39h14.4v63h-14.4v-26.01h-12.15v26.01h-14.4V580.12z"/>
		<path d="M555.08,580.12h31.86v12.6H569.2v11.97h15.3v12.6h-15.3v13.23h18.18v12.6h-32.31V580.12z"/>
		<path d="M609.43,579.4c12.42,0,19.26,7.29,21.24,22.86l-13.95,2.7c-0.99-9.18-3.06-12.96-7.29-12.96c-5.13,0-7.2,5.67-7.2,19.62
			s2.07,19.62,7.2,19.62c4.41,0,6.57-3.87,7.38-13.32l14.22,2.7c-2.61,16.02-9.27,23.22-21.6,23.22c-14.4,0-22.05-11.16-22.05-32.22
			C587.38,590.65,595.03,579.4,609.43,579.4z"/>
		<path d="M671.19,631.06h-24.48l-4.41,12.06h-16.38l24.93-63h16.92l24.93,63h-17.1L671.19,631.06z M666.51,618.1l-7.56-20.43
			l-7.47,20.43H666.51z"/>
		<path d="M691.8,580.12h70.74c19.17,0,28.44,8.46,28.44,21.06c0,11.25-8.28,19.98-23.94,21.42l27.36,20.52h-29.79l-24.12-18.54
			H713.4v18.54h-21.6V580.12z M713.4,595.42v13.86h45.36c7.11,0,10.17-2.16,10.17-6.93s-3.06-6.93-10.17-6.93H713.4z"/>
		<path d="M794.67,580.12h14.4v63h-14.4V580.12z"/>
		<path d="M813.84,580.12h17.91l38.61,42.66v-42.66h16.74v63h-17.82l-38.61-42.57v42.57h-16.83V580.12z"/>
		<path d="M913.74,579.4c11.52,0,18.09,6.84,20.25,21.33l-13.95,2.7c-0.9-8.1-2.88-11.43-6.75-11.43c-5.4,0-7.65,5.76-7.65,19.62
			c0,13.95,2.34,19.62,8.1,19.62c4.5,0,6.84-3.06,7.47-10.35h-7.83v-11.25h21.51v33.48h-9.45l-1.8-8.19
			c-2.97,6.03-7.47,8.91-13.14,8.91c-12.33,0-19.71-12.06-19.71-32.22C890.79,590.56,898.8,579.4,913.74,579.4z"/>
		<path d="M936.33,611.62c0-19.53,12.78-32.4,32.13-32.4s32.13,12.87,32.13,32.4c0,19.44-12.78,32.4-32.13,32.4
			S936.33,631.06,936.33,611.62z M983.49,611.62c0-12.24-5.31-18.9-15.03-18.9s-15.03,6.66-15.03,18.9s5.31,18.9,15.03,18.9
			S983.49,623.86,983.49,611.62z"/>
		<path d="M1004.04,580.12h14.4l13.95,36.54v-36.54h13.05v63h-14.4l-13.95-36.54v36.54h-13.05V580.12z"/>
		<path d="M1050.83,580.12h96.93v14.4h-76.23v9.18h69.12v14.4h-69.12v10.62h76.68v14.4h-97.38V580.12z"/>
	</g>
	<g>
		<path d="M73.4,676.05c12.42,0,19.26,7.29,21.24,22.86l-13.95,2.7c-0.99-9.18-3.06-12.96-7.29-12.96c-5.13,0-7.2,5.67-7.2,19.62
			c0,13.95,2.07,19.62,7.2,19.62c4.41,0,6.57-3.87,7.38-13.32l14.22,2.7c-2.61,16.02-9.27,23.22-21.6,23.22
			c-14.4,0-22.05-11.16-22.05-32.22C51.35,687.3,59,676.05,73.4,676.05z"/>
		<path d="M96.71,676.77h19.89v23.13h51.93v-23.13h19.98v63h-19.98V715.2h-51.93v24.57H96.71V676.77z"/>
		<path d="M190.75,708.27c0-19.53,12.78-32.4,32.13-32.4s32.13,12.87,32.13,32.4c0,19.44-12.78,32.4-32.13,32.4
			S190.75,727.71,190.75,708.27z M237.91,708.27c0-12.24-5.31-18.9-15.03-18.9s-15.03,6.66-15.03,18.9c0,12.24,5.31,18.9,15.03,18.9
			S237.91,720.51,237.91,708.27z"/>
		<path d="M255.91,708.27c0-19.53,12.78-32.4,32.13-32.4s32.13,12.87,32.13,32.4c0,19.44-12.78,32.4-32.13,32.4
			S255.91,727.71,255.91,708.27z M303.07,708.27c0-12.24-5.31-18.9-15.03-18.9s-15.03,6.66-15.03,18.9c0,12.24,5.31,18.9,15.03,18.9
			S303.07,720.51,303.07,708.27z"/>
		<path d="M333.39,718.44c0.36,6.66,2.79,9.9,7.47,9.9c3.87,0,6.03-1.98,6.03-5.49c0-3.42-1.71-5.13-6.75-7.11l-5.31-2.07
			c-9-3.51-13.59-9.36-13.59-18.99c0-11.61,7.38-18.63,19.53-18.63c12.15,0,18.54,6.21,20.07,19.35l-13.5,1.8
			c-0.36-6.21-2.34-9-6.3-9c-3.69,0-5.85,2.07-5.85,5.67c0,3.6,1.89,5.13,8.1,7.65l4.86,1.98c9.45,3.87,13.14,8.91,13.14,18.45
			c0,11.52-7.74,18.54-20.43,18.54c-13.41,0-19.26-5.67-20.97-20.25L333.39,718.44z"/>
		<path d="M363.54,676.77h96.93v14.4h-76.23v9.18h69.12v14.4h-69.12v10.62h76.68v14.4h-97.38V676.77z"/>
		<path d="M475.23,689.37h-12.51v-12.6h39.51v12.6h-12.6v50.4h-14.4V689.37z"/>
		<path d="M503.19,676.77h14.4v24.39h12.15v-24.39h14.4v63h-14.4v-26.01h-12.15v26.01h-14.4V676.77z"/>
		<path d="M549.71,676.77h31.86v12.6h-17.73v11.97h15.3v12.6h-15.3v13.23h18.18v12.6h-32.31V676.77z"/>
		<path d="M604.06,676.05c12.42,0,19.26,7.29,21.24,22.86l-13.95,2.7c-0.99-9.18-3.06-12.96-7.29-12.96c-5.13,0-7.2,5.67-7.2,19.62
			c0,13.95,2.07,19.62,7.2,19.62c4.41,0,6.57-3.87,7.38-13.32l14.22,2.7c-2.61,16.02-9.27,23.22-21.6,23.22
			c-14.4,0-22.05-11.16-22.05-32.22C582.02,687.3,589.67,676.05,604.06,676.05z"/>
		<path d="M665.82,727.71h-24.48l-4.41,12.06h-16.38l24.93-63h16.92l24.93,63h-17.1L665.82,727.71z M661.14,714.75l-7.56-20.43
			l-7.47,20.43H661.14z"/>
		<path d="M686.43,676.77h70.74c19.17,0,28.44,8.46,28.44,21.06c0,11.25-8.28,19.98-23.94,21.42l27.36,20.52h-29.79l-24.12-18.54
			h-27.09v18.54h-21.6V676.77z M708.03,692.07v13.86h45.36c7.11,0,10.17-2.16,10.17-6.93c0-4.77-3.06-6.93-10.17-6.93H708.03z"/>
		<path d="M789.3,676.77h14.4v63h-14.4V676.77z"/>
		<path d="M808.47,676.77h17.91l38.61,42.66v-42.66h16.74v63h-17.82L825.3,697.2v42.57h-16.83V676.77z"/>
		<path d="M908.37,676.05c11.52,0,18.09,6.84,20.25,21.33l-13.95,2.7c-0.9-8.1-2.88-11.43-6.75-11.43c-5.4,0-7.65,5.76-7.65,19.62
			c0,13.95,2.34,19.62,8.1,19.62c4.5,0,6.84-3.06,7.47-10.35h-7.83v-11.25h21.51v33.48h-9.45l-1.8-8.19
			c-2.97,6.03-7.47,8.91-13.14,8.91c-12.33,0-19.71-12.06-19.71-32.22C885.42,687.21,893.43,676.05,908.37,676.05z"/>
	</g>
	<g>
		<path d="M74.3,764.02c11.52,0,18.09,6.84,20.25,21.33l-13.95,2.7c-0.9-8.1-2.88-11.43-6.75-11.43c-5.4,0-7.65,5.76-7.65,19.62
			c0,13.95,2.34,19.62,8.1,19.62c4.5,0,6.84-3.06,7.47-10.35h-7.83v-11.25h21.51v33.48h-9.45l-1.8-8.19
			c-2.97,6.03-7.47,8.91-13.14,8.91c-12.33,0-19.71-12.06-19.71-32.22C51.35,775.18,59.36,764.02,74.3,764.02z"/>
		<path d="M101.6,764.74h62.46v13.77H119.6v10.44h39.06v13.5H119.6v11.52h45.27v13.77H101.6V764.74z"/>
		<path d="M177.47,777.34h-12.51v-12.6h39.51v12.6h-12.6v50.4h-14.4V777.34z"/>
		<path d="M203,764.74h14.31l7.02,40.59l7.74-40.59h13.32l7.92,41.58l7.11-41.58h14.49l-13.14,63H247l-8.46-41.31l-8.46,41.31
			h-14.94L203,764.74z"/>
		<path d="M277.79,764.74h19.89v23.13h51.93v-23.13h19.98v63h-19.98v-24.57h-51.93v24.57h-19.89V764.74z"/>
		<path d="M405.59,816.13h-19.53l-3.33,11.61h-14.94l20.16-63h16.56l20.16,63h-15.75L405.59,816.13z M402.08,803.53l-6.21-21.78
			l-6.21,21.78H402.08z"/>
		<path d="M426.74,777.34h-12.51v-12.6h39.51v12.6h-12.6v50.4h-14.4V777.34z"/>
		<path d="M481.24,803.44l-29.61-38.7h22.5l16.74,23.49l17.01-23.49h21.42l-29.79,38.88v24.12h-18.27V803.44z"/>
		<path d="M520.48,796.33c0-20.25,15.39-32.58,41.13-32.58c25.65,0,41.04,12.33,41.04,32.58c0,19.98-15.39,32.4-41.04,32.4
			C535.87,828.73,520.48,816.31,520.48,796.33z M583.92,796.33c0-12.06-7.38-18.18-22.32-18.18c-15.03,0-22.41,6.12-22.41,18.18
			c0,11.88,7.38,18,22.41,18C576.54,814.33,583.92,808.21,583.92,796.33z"/>
		<path d="M643.01,828.73c-22.95,0-36-10.8-36-29.7v-34.29h18.27v34.29c0,10.26,5.85,15.3,17.73,15.3c12.06,0,17.91-5.04,17.91-15.3
			v-34.29h18.27v34.29C679.19,817.93,666.05,828.73,643.01,828.73z"/>
		<path d="M680.91,764.74h14.31l7.02,40.59l7.74-40.59h13.32l7.92,41.58l7.11-41.58h14.49l-13.14,63h-14.76l-8.46-41.31L708,827.74
			h-14.94L680.91,764.74z"/>
		<path d="M776.33,816.67h-14.58l-2.25,11.07H746l15.39-63h16.2l15.39,63h-14.4L776.33,816.67z M773.81,804.34l-4.77-23.31
			l-4.77,23.31H773.81z"/>
		<path d="M792.17,764.74h17.91l38.61,42.66v-42.66h16.74v63h-17.82L809,785.17v42.57h-16.83V764.74z"/>
		<path d="M880.27,777.34h-12.51v-12.6h39.51v12.6h-12.6v50.4h-14.4V777.34z"/>
	</g>
	<g>
		<path d="M772.44,951.24c11.52,0,18.09,6.84,20.25,21.33l-13.95,2.7c-0.9-8.1-2.88-11.43-6.75-11.43c-5.4,0-7.65,5.76-7.65,19.62
			c0,13.95,2.34,19.62,8.1,19.62c4.5,0,6.84-3.06,7.47-10.35h-7.83v-11.25h21.51v33.48h-9.45l-1.8-8.19
			c-2.97,6.03-7.47,8.91-13.14,8.91c-12.33,0-19.71-12.06-19.71-32.22C749.49,962.4,757.5,951.24,772.44,951.24z"/>
		<path d="M799.74,951.96h62.46v13.77h-44.46v10.44h39.06v13.5h-39.06v11.52h45.27v13.77h-63.27V951.96z"/>
		<path d="M875.61,964.56H863.1v-12.6h39.51v12.6h-12.6v50.4h-14.4V964.56z"/>
		<path d="M901.14,951.96h14.31l7.02,40.59l7.74-40.59h13.32l7.92,41.58l7.11-41.58h14.49l-13.14,63h-14.76l-8.46-41.31l-8.46,41.31
			h-14.94L901.14,951.96z"/>
		<path d="M975.93,951.96h19.89v23.13h51.93v-23.13h19.98v63h-19.98v-24.57h-51.93v24.57h-19.89V951.96z"/>
		<path d="M1103.73,1003.35h-19.53l-3.33,11.61h-14.94l20.16-63h16.56l20.16,63h-15.75L1103.73,1003.35z M1100.22,990.75
			l-6.21-21.78l-6.21,21.78H1100.22z"/>
		<path d="M1124.88,964.56h-12.51v-12.6h39.51v12.6h-12.6v50.4h-14.4V964.56z"/>
		<path d="M1179.38,990.66l-29.61-38.7h22.5l16.74,23.49l17.01-23.49h21.42l-29.79,38.88v24.12h-18.27V990.66z"/>
		<path d="M1218.62,983.55c0-20.25,15.39-32.58,41.13-32.58c25.65,0,41.04,12.33,41.04,32.58c0,19.98-15.39,32.4-41.04,32.4
			C1234.01,1015.95,1218.62,1003.53,1218.62,983.55z M1282.07,983.55c0-12.06-7.38-18.18-22.32-18.18
			c-15.03,0-22.41,6.12-22.41,18.18c0,11.88,7.38,18,22.41,18C1274.69,1001.55,1282.07,995.43,1282.07,983.55z"/>
		<path d="M1341.15,1015.95c-22.95,0-36-10.8-36-29.7v-34.29h18.27v34.29c0,10.26,5.85,15.3,17.73,15.3
			c12.06,0,17.91-5.04,17.91-15.3v-34.29h18.27v34.29C1377.33,1005.15,1364.19,1015.95,1341.15,1015.95z"/>
		<path d="M1379.05,951.96h14.31l7.02,40.59l7.74-40.59h13.32l7.92,41.58l7.11-41.58h14.49l-13.14,63h-14.76l-8.46-41.31
			l-8.46,41.31h-14.94L1379.05,951.96z"/>
		<path d="M1474.48,1003.89h-14.58l-2.25,11.07h-13.5l15.39-63h16.2l15.39,63h-14.4L1474.48,1003.89z M1471.96,991.56l-4.77-23.31
			l-4.77,23.31H1471.96z"/>
		<path d="M1490.32,951.96h17.91l38.61,42.66v-42.66h16.74v63h-17.82l-38.61-42.57v42.57h-16.83V951.96z"/>
		<path d="M1578.41,964.56h-12.51v-12.6h39.51v12.6h-12.6v50.4h-14.4V964.56z"/>
	</g>
	<g>
		<path d="M103.77,236.95c0-16.78,16.49-26.21,46.08-26.21s46.08,9.43,46.08,26.21c0,16.71-16.56,26.21-46.08,26.21
			S103.77,253.65,103.77,236.95z M178.3,236.95c0-9.07-9-13.25-28.44-13.25c-19.44,0-28.44,4.18-28.44,13.25s9,13.25,28.44,13.25
			C169.3,250.2,178.3,246.02,178.3,236.95z"/>
		<path d="M198.54,249.19h34.13v-23.76l-31.25,4.32v-13.32l34.13-4.68h14.4v37.44h28.87v12.96h-80.29V249.19z"/>
	</g>
	<g>
		<path d="M749.67,915.49c0-16.78,16.49-26.21,46.08-26.21s46.08,9.43,46.08,26.21c0,16.71-16.56,26.21-46.08,26.21
			S749.67,932.19,749.67,915.49z M824.2,915.49c0-9.07-9-13.25-28.44-13.25c-19.44,0-28.44,4.18-28.44,13.25s9,13.25,28.44,13.25
			C815.19,928.74,824.2,924.56,824.2,915.49z"/>
		<path d="M884.54,916.35c18.5-5.4,21.89-6.48,21.89-9.58c0-3.82-5.18-5.18-20.23-5.18c-18.58,0-24.19,2.38-25.56,7.63l-17.64-3.31
			c3.82-11.67,16.27-16.63,43.13-16.63c25.99,0,38.96,5.4,38.96,15.91c0,8.57-5.04,13.18-34.2,20.38l-8.71,2.16h43.2v12.96h-81.08
			v-12.67L884.54,916.35z"/>
	</g>
	<g>
		<path d="M742.01,1189.09h14.31l7.02,40.59l7.74-40.59h13.32l7.92,41.58l7.11-41.58h14.49l-13.14,63h-14.76l-8.46-41.31
			l-8.46,41.31h-14.94L742.01,1189.09z"/>
		<path d="M816.81,1189.09h19.89v23.13h51.93v-23.13h19.98v63h-19.98v-24.57h-51.93v24.57h-19.89V1189.09z"/>
		<path d="M944.6,1240.47h-19.53l-3.33,11.61h-14.94l20.16-63h16.56l20.16,63h-15.75L944.6,1240.47z M941.09,1227.88l-6.21-21.78
			l-6.21,21.78H941.09z"/>
		<path d="M965.75,1201.69h-12.51v-12.6h39.51v12.6h-12.6v50.4h-14.4V1201.69z"/>
		<path d="M1020.25,1227.79l-29.61-38.7h22.5l16.74,23.49l17.01-23.49h21.42l-29.79,38.88v24.12h-18.27V1227.79z"/>
		<path d="M1059.49,1220.68c0-20.25,15.39-32.58,41.13-32.58c25.65,0,41.04,12.33,41.04,32.58c0,19.98-15.39,32.4-41.04,32.4
			C1074.88,1253.07,1059.49,1240.65,1059.49,1220.68z M1122.94,1220.68c0-12.06-7.38-18.18-22.32-18.18
			c-15.03,0-22.41,6.12-22.41,18.18c0,11.88,7.38,18,22.41,18C1115.56,1238.67,1122.94,1232.55,1122.94,1220.68z"/>
		<path d="M1182.02,1253.07c-22.95,0-36-10.8-36-29.7v-34.29h18.27v34.29c0,10.26,5.85,15.3,17.73,15.3
			c12.06,0,17.91-5.04,17.91-15.3v-34.29h18.27v34.29C1218.2,1242.27,1205.06,1253.07,1182.02,1253.07z"/>
		<path d="M1219.92,1189.09h14.31l7.02,40.59l7.74-40.59h13.32l7.92,41.58l7.11-41.58h14.49l-13.14,63h-14.76l-8.46-41.31
			l-8.46,41.31h-14.94L1219.92,1189.09z"/>
		<path d="M1315.35,1241.01h-14.58l-2.25,11.07h-13.5l15.39-63h16.2l15.39,63h-14.4L1315.35,1241.01z M1312.83,1228.69l-4.77-23.31
			l-4.77,23.31H1312.83z"/>
		<path d="M1331.19,1189.09h17.91l38.61,42.66v-42.66h16.74v63h-17.82l-38.61-42.57v42.57h-16.83V1189.09z"/>
		<path d="M1419.28,1201.69h-12.51v-12.6h39.51v12.6h-12.6v50.4h-14.4V1201.69z"/>
	</g>
	<g>
		<path d="M744.71,1152.61c0-16.78,16.49-26.21,46.08-26.21s46.08,9.43,46.08,26.21c0,16.71-16.56,26.21-46.08,26.21
			S744.71,1169.31,744.71,1152.61z M819.23,1152.61c0-9.07-9-13.25-28.44-13.25c-19.44,0-28.44,4.18-28.44,13.25
			s9,13.25,28.44,13.25C810.23,1165.86,819.23,1161.68,819.23,1152.61z"/>
		<path d="M879.58,1153.47c18.5-5.4,21.89-6.48,21.89-9.58c0-3.82-5.18-5.18-20.23-5.18c-18.58,0-24.19,2.38-25.56,7.63l-17.64-3.31
			c3.82-11.67,16.27-16.63,43.13-16.63c25.99,0,38.96,5.4,38.96,15.91c0,8.57-5.04,13.18-34.2,20.38l-8.71,2.16h43.2v12.96h-81.08
			v-12.67L879.58,1153.47z"/>
	</g>
	<g>
		<path d="M191.78,1415.56c0-16.78,16.49-26.21,46.08-26.21s46.08,9.43,46.08,26.21c0,16.71-16.56,26.21-46.08,26.21
			S191.78,1432.27,191.78,1415.56z M266.31,1415.56c0-9.07-9-13.25-28.44-13.25c-19.44,0-28.44,4.18-28.44,13.25
			s9,13.25,28.44,13.25C257.31,1428.81,266.31,1424.63,266.31,1415.56z"/>
		<path d="M344.93,1440.76v-8.42h-59.76v-12.24l60.12-29.74h16.92v29.95h13.97v12.02h-13.97v8.42H344.93z M344.93,1420.31v-17.07
			l-34.78,17.07H344.93z"/>
	</g>
	<g>
		<path d="M249.57,1647.17h64.17c28.8,0,44.1,10.98,44.1,31.5c0,20.61-15.3,31.5-44.1,31.5h-64.17V1647.17z M335.79,1678.67
			c0-10.62-6.03-15.3-19.89-15.3h-44.73v30.6h44.73C329.76,1693.97,335.79,1689.29,335.79,1678.67z"/>
		<path d="M359.91,1678.67c0-19.53,12.78-32.4,32.13-32.4s32.13,12.87,32.13,32.4c0,19.44-12.78,32.4-32.13,32.4
			S359.91,1698.11,359.91,1678.67z M407.07,1678.67c0-12.24-5.31-18.9-15.03-18.9s-15.03,6.66-15.03,18.9
			c0,12.24,5.31,18.9,15.03,18.9S407.07,1690.91,407.07,1678.67z"/>
		<path d="M425.97,1647.17h16.47l26.1,40.68v-40.68h14.85v63h-16.47l-26.1-40.68v40.68h-14.85V1647.17z"/>
		<path d="M503.28,1647.17v12.33c0,11.7-4.41,16.56-15.3,16.83l-0.72-8.46c4.77,0,6.48-1.35,6.75-5.94h-6.39v-14.76H503.28z"/>
		<path d="M523.37,1660.67h-18.63v-13.5h54.27v13.5h-18.99v49.5h-16.65V1660.67z"/>
		<path d="M572.71,1688.48c0.72,6.84,4.05,10.08,10.17,10.08c5.58,0,8.19-2.07,8.19-5.58c0-3.51-1.89-5.31-8.55-6.93l-6.57-1.53
			c-11.07-2.61-16.47-8.64-16.47-18.72c0-11.97,8.91-19.44,23.04-19.44s21.42,6.21,23.13,19.35l-14.85,1.98c-0.81-6.3-3.24-9-8.37-9
			c-5.04,0-7.56,2.25-7.56,5.76s1.98,5.13,8.82,6.93l6.12,1.53c11.88,2.97,16.83,8.37,16.83,18.72c0,12.06-9,19.35-24.03,19.35
			c-15.57,0-22.95-6.12-24.75-20.52L572.71,1688.48z"/>
		<path d="M610.32,1647.17h38.7v13.05h-23.31v11.43h19.8v12.87h-19.8v12.6h24.03v13.05h-39.42V1647.17z"/>
		<path d="M661.63,1659.77h-12.51v-12.6h39.51v12.6h-12.6v50.4h-14.4V1659.77z"/>
		<path d="M699.67,1659.77h-12.51v-12.6h39.51v12.6h-12.6v50.4h-14.4V1659.77z"/>
		<path d="M727.62,1647.17h14.4v50.4h17.91v12.6h-32.31V1647.17z"/>
		<path d="M763.17,1647.17h79.38v14.13h-60.03v9.72h53.73v14.04h-53.73v10.98h60.66v14.13h-80.01V1647.17z"/>
		<path d="M849.53,1647.17h38.7v13.05h-23.31v14.13h19.8v13.05h-19.8v22.77h-15.39V1647.17z"/>
		<path d="M887.81,1678.67c0-21.96,7.65-32.22,22.05-32.22s22.05,10.26,22.05,32.22c0,21.96-7.65,32.22-22.05,32.22
			S887.81,1700.63,887.81,1678.67z M917.06,1678.67c0-13.95-2.07-19.62-7.2-19.62s-7.2,5.67-7.2,19.62c0,13.95,2.07,19.62,7.2,19.62
			S917.06,1692.62,917.06,1678.67z"/>
		<path d="M936.99,1647.17H981c15.12,0,23.67,8.01,23.67,20.61c0,10.26-6.66,17.64-18,19.35l20.88,23.04h-22.41l-18.54-21.06h-11.34
			v21.06h-18.27V1647.17z M955.26,1660.94v14.4h22.5c5.67,0,8.64-2.52,8.64-7.2s-2.97-7.2-8.64-7.2H955.26z"/>
		<path d="M1010.74,1647.17h16.65v49.5h28.17v13.5h-44.82V1647.17z"/>
		<path d="M1057.85,1647.17h45.54v13.5h-28.89v10.98h24.3v13.14h-24.3v11.88h29.88v13.5h-46.53V1647.17z"/>
		<path d="M1118.25,1688.84c0.36,6.66,2.79,9.9,7.47,9.9c3.87,0,6.03-1.98,6.03-5.49c0-3.42-1.71-5.13-6.75-7.11l-5.31-2.07
			c-9-3.51-13.59-9.36-13.59-18.99c0-11.61,7.38-18.63,19.53-18.63s18.54,6.21,20.07,19.35l-13.5,1.8c-0.36-6.21-2.34-9-6.3-9
			c-3.69,0-5.85,2.07-5.85,5.67c0,3.6,1.89,5.13,8.1,7.65l4.86,1.98c9.45,3.87,13.14,8.91,13.14,18.45
			c0,11.52-7.74,18.54-20.43,18.54c-13.41,0-19.26-5.67-20.97-20.25L1118.25,1688.84z"/>
		<path d="M1159.84,1688.84c0.36,6.66,2.79,9.9,7.47,9.9c3.87,0,6.03-1.98,6.03-5.49c0-3.42-1.71-5.13-6.75-7.11l-5.31-2.07
			c-9-3.51-13.59-9.36-13.59-18.99c0-11.61,7.38-18.63,19.53-18.63s18.54,6.21,20.07,19.35l-13.5,1.8c-0.36-6.21-2.34-9-6.3-9
			c-3.69,0-5.85,2.07-5.85,5.67c0,3.6,1.89,5.13,8.1,7.65l4.86,1.98c9.45,3.87,13.14,8.91,13.14,18.45
			c0,11.52-7.74,18.54-20.43,18.54c-13.41,0-19.26-5.67-20.97-20.25L1159.84,1688.84z"/>
	</g>
	<g>
		<path d="M238.41,1635.89l32.04-25.42l-30.96-24.99h24.34l18.79,15.55l18.51-15.55h23.26l-30.75,24.41l31.83,25.99h-24.34
			l-19.51-16.42l-19.37,16.42H238.41z"/>
		<path d="M324.12,1635.89l32.04-25.42l-30.96-24.99h24.34l18.79,15.55l18.51-15.55h23.26l-30.75,24.41l31.83,25.99h-24.34
			l-19.51-16.42l-19.37,16.42H324.12z"/>
	</g>
	<g>
		<path d="M192.58,1451.73h64.17c28.8,0,44.1,10.98,44.1,31.5c0,20.61-15.3,31.5-44.1,31.5h-64.17V1451.73z M278.79,1483.23
			c0-10.62-6.03-15.3-19.89-15.3h-44.73v30.6h44.73C272.76,1498.53,278.79,1493.85,278.79,1483.23z"/>
		<path d="M302.92,1483.23c0-19.53,12.78-32.4,32.13-32.4s32.13,12.87,32.13,32.4c0,19.44-12.78,32.4-32.13,32.4
			S302.92,1502.67,302.92,1483.23z M350.08,1483.23c0-12.24-5.31-18.9-15.03-18.9s-15.03,6.66-15.03,18.9
			c0,12.24,5.31,18.9,15.03,18.9S350.08,1495.47,350.08,1483.23z"/>
		<path d="M368.98,1451.73h16.47l26.1,40.68v-40.68h14.85v63h-16.47l-26.1-40.68v40.68h-14.85V1451.73z"/>
		<path d="M446.28,1451.73v12.33c0,11.7-4.41,16.56-15.3,16.83l-0.72-8.46c4.77,0,6.48-1.35,6.75-5.94h-6.39v-14.76H446.28z"/>
		<path d="M466.37,1465.23h-18.63v-13.5h54.27v13.5h-18.99v49.5h-16.65V1465.23z"/>
		<path d="M515.72,1493.04c0.72,6.84,4.05,10.08,10.17,10.08c5.58,0,8.19-2.07,8.19-5.58c0-3.51-1.89-5.31-8.55-6.93l-6.57-1.53
			c-11.07-2.61-16.47-8.64-16.47-18.72c0-11.97,8.91-19.44,23.04-19.44s21.42,6.21,23.13,19.35l-14.85,1.98c-0.81-6.3-3.24-9-8.37-9
			c-5.04,0-7.56,2.25-7.56,5.76s1.98,5.13,8.82,6.93l6.12,1.53c11.88,2.97,16.83,8.37,16.83,18.72c0,12.06-9,19.35-24.03,19.35
			c-15.57,0-22.95-6.12-24.75-20.52L515.72,1493.04z"/>
		<path d="M553.33,1451.73h38.7v13.05h-23.31v11.43h19.8v12.87h-19.8v12.6h24.03v13.05h-39.42V1451.73z"/>
		<path d="M604.64,1464.33h-12.51v-12.6h39.51v12.6h-12.6v50.4h-14.4V1464.33z"/>
		<path d="M642.67,1464.33h-12.51v-12.6h39.51v12.6h-12.6v50.4h-14.4V1464.33z"/>
		<path d="M670.63,1451.73h14.4v50.4h17.91v12.6h-32.31V1451.73z"/>
		<path d="M706.18,1451.73h79.38v14.13h-60.03v9.72h53.73v14.04h-53.73v10.98h60.66v14.13h-80.01V1451.73z"/>
		<path d="M792.54,1451.73h38.7v13.05h-23.31v14.13h19.8v13.05h-19.8v22.77h-15.39V1451.73z"/>
		<path d="M830.82,1483.23c0-21.96,7.65-32.22,22.05-32.22s22.05,10.26,22.05,32.22c0,21.96-7.65,32.22-22.05,32.22
			S830.82,1505.19,830.82,1483.23z M860.06,1483.23c0-13.95-2.07-19.62-7.2-19.62s-7.2,5.67-7.2,19.62c0,13.95,2.07,19.62,7.2,19.62
			S860.06,1497.18,860.06,1483.23z"/>
		<path d="M880,1451.73h44.01c15.12,0,23.67,8.01,23.67,20.61c0,10.26-6.66,17.64-18,19.35l20.88,23.04h-22.41l-18.54-21.06h-11.34
			v21.06H880V1451.73z M898.27,1465.5v14.4h22.5c5.67,0,8.64-2.52,8.64-7.2s-2.97-7.2-8.64-7.2H898.27z"/>
		<path d="M953.74,1451.73h16.65v49.5h28.17v13.5h-44.82V1451.73z"/>
		<path d="M1000.86,1451.73h45.54v13.5h-28.89v10.98h24.3v13.14h-24.3v11.88h29.88v13.5h-46.53V1451.73z"/>
		<path d="M1061.26,1493.4c0.36,6.66,2.79,9.9,7.47,9.9c3.87,0,6.03-1.98,6.03-5.49c0-3.42-1.71-5.13-6.75-7.11l-5.31-2.07
			c-9-3.51-13.59-9.36-13.59-18.99c0-11.61,7.38-18.63,19.53-18.63s18.54,6.21,20.07,19.35l-13.5,1.8c-0.36-6.21-2.34-9-6.3-9
			c-3.69,0-5.85,2.07-5.85,5.67c0,3.6,1.89,5.13,8.1,7.65l4.86,1.98c9.45,3.87,13.14,8.91,13.14,18.45
			c0,11.52-7.74,18.54-20.43,18.54c-13.41,0-19.26-5.67-20.97-20.25L1061.26,1493.4z"/>
		<path d="M1102.85,1493.4c0.36,6.66,2.79,9.9,7.47,9.9c3.87,0,6.03-1.98,6.03-5.49c0-3.42-1.71-5.13-6.75-7.11l-5.31-2.07
			c-9-3.51-13.59-9.36-13.59-18.99c0-11.61,7.38-18.63,19.53-18.63s18.54,6.21,20.07,19.35l-13.5,1.8c-0.36-6.21-2.34-9-6.3-9
			c-3.69,0-5.85,2.07-5.85,5.67c0,3.6,1.89,5.13,8.1,7.65l4.86,1.98c9.45,3.87,13.14,8.91,13.14,18.45
			c0,11.52-7.74,18.54-20.43,18.54c-13.41,0-19.26-5.67-20.97-20.25L1102.85,1493.4z"/>
	</g>
	<g>
		<path d="M138.35,1162.39c15.39,0,25.38,6.84,28.98,20.25l-15.93,3.51c-1.62-6.66-6.03-10.26-12.96-10.26
			c-10.08,0-15.57,6.66-15.57,18.9c0,12.24,5.49,18.9,15.57,18.9c7.92,0,12.96-3.15,14.58-9h-14.76v-12.6h29.97v34.2h-11.34
			l-1.08-8.37c-4.5,6.03-11.07,9.27-19.17,9.27c-18.63,0-30.87-12.87-30.87-32.4C105.77,1175.26,118.73,1162.39,138.35,1162.39z"/>
		<path d="M175.8,1163.29h62.46v13.77H193.8v10.44h39.06v13.5H193.8v11.52h45.27v13.77H175.8V1163.29z"/>
		<path d="M251.67,1175.89h-12.51v-12.6h39.51v12.6h-12.6v50.4h-14.4V1175.89z"/>
		<path d="M277.19,1163.29h14.31l7.02,40.59l7.74-40.59h13.32l7.92,41.58l7.11-41.58h14.49l-13.14,63H321.2l-8.46-41.31l-8.46,41.31
			h-14.94L277.19,1163.29z"/>
		<path d="M351.99,1163.29h19.89v23.13h51.93v-23.13h19.98v63H423.8v-24.57h-51.93v24.57h-19.89V1163.29z"/>
		<path d="M516.23,1214.95h-45.27l-7.29,11.34h-22.05l42.12-63h20.52l42.12,63h-22.86L516.23,1214.95z M507.05,1200.73l-13.41-20.97
			l-13.5,20.97H507.05z"/>
		<path d="M550.16,1176.79h-18.63v-13.5h54.27v13.5h-18.99v49.5h-16.65V1176.79z"/>
	</g>
	<g>
		<path d="M105.77,1126.81c0-16.78,16.49-26.21,46.08-26.21s46.08,9.43,46.08,26.21c0,16.71-16.56,26.21-46.08,26.21
			S105.77,1143.52,105.77,1126.81z M180.29,1126.81c0-9.07-9-13.25-28.44-13.25c-19.44,0-28.44,4.18-28.44,13.25
			s9,13.25,28.44,13.25C171.29,1140.06,180.29,1135.89,180.29,1126.81z"/>
		<path d="M240.64,1127.68c18.5-5.4,21.89-6.48,21.89-9.58c0-3.82-5.18-5.18-20.23-5.18c-18.58,0-24.19,2.38-25.56,7.63l-17.64-3.31
			c3.82-11.67,16.27-16.63,43.13-16.63c25.99,0,38.96,5.4,38.96,15.91c0,8.57-5.04,13.18-34.2,20.38l-8.71,2.16h43.2v12.96h-81.08
			v-12.67L240.64,1127.68z"/>
	</g>
	<g>
		<path d="M710.05,414.02c0-16.42,11.16-25.99,30.53-25.99c19.37,0,30.6,9.58,30.6,25.99c0,16.35-11.3,25.99-30.6,25.99
			S710.05,430.36,710.05,414.02z M756.14,414.02c0-9.58-5.11-14.47-15.55-14.47c-10.44,0-15.55,4.9-15.55,14.47
			s5.11,14.47,15.55,14.47C751.03,428.49,756.14,423.6,756.14,414.02z"/>
		<path d="M796.82,415.46c10.3-5.18,12.6-7.49,12.6-10.94c0-3.38-3.1-5.18-10.51-5.18c-9,0-12.39,2.52-12.96,8.06l-14.33-2.3
			c1.87-11.09,10.87-17.07,27.43-17.07c16.35,0,25.56,5.98,25.56,15.91c0,7.56-3.82,12.31-20.23,20.09l-6.91,3.67h27.58v11.52H773.2
			v-11.45L796.82,415.46z"/>
	</g>
	<g>
		<path d="M695.71,282.94c0-16.42,11.16-25.99,30.53-25.99c19.37,0,30.6,9.58,30.6,25.99c0,16.35-11.3,25.99-30.6,25.99
			S695.71,299.28,695.71,282.94z M741.79,282.94c0-9.58-5.11-14.47-15.55-14.47c-10.44,0-15.55,4.9-15.55,14.47
			s5.11,14.47,15.55,14.47C736.68,297.41,741.79,292.52,741.79,282.94z"/>
		<path d="M782.48,284.38c10.3-5.18,12.6-7.49,12.6-10.94c0-3.38-3.1-5.18-10.51-5.18c-9,0-12.39,2.52-12.96,8.06l-14.33-2.3
			c1.87-11.09,10.87-17.07,27.43-17.07c16.35,0,25.56,5.98,25.56,15.91c0,7.56-3.82,12.31-20.23,20.09l-6.91,3.67h27.58v11.52
			h-51.84v-11.45L782.48,284.38z"/>
	</g>
	<g>
		<path d="M710.05,500.86c0-16.42,11.16-25.99,30.53-25.99c19.37,0,30.6,9.58,30.6,25.99c0,16.35-11.3,25.99-30.6,25.99
			S710.05,517.21,710.05,500.86z M756.14,500.86c0-9.58-5.11-14.47-15.55-14.47c-10.44,0-15.55,4.9-15.55,14.47
			s5.11,14.47,15.55,14.47C751.03,515.34,756.14,510.44,756.14,500.86z"/>
		<path d="M799.26,526.86c-16.78,0-25.99-4.68-28.01-15.77l14.69-2.66c0.5,5.11,4.61,7.63,13.39,7.63c7.92,0,11.88-1.8,11.88-5.4
			c0-2.95-2.38-4.54-7.78-4.54h-13.11v-10.8h13.11c5.33,0,7.63-1.8,7.63-4.68c0-3.38-3.82-4.97-11.81-4.97
			c-8.35,0-12.75,2.38-13.46,7.27l-13.83-2.74c2.09-9.94,11.67-15.34,27.58-15.34c16.85,0,26.57,4.82,26.57,13.68
			c0,5.33-3.17,9.22-9.58,11.38c6.77,1.73,10.37,5.4,10.37,11.59C826.91,521.46,817.04,526.86,799.26,526.86z"/>
	</g>
	<g>
		<path d="M938.73,407.27v10.44H927.5v-10.44h-13.25v-10.01h13.25v-10.44h11.23v10.44h13.18v10.01H938.73z"/>
		<path d="M978.79,407.27v10.44h-11.23v-10.44h-13.25v-10.01h13.25v-10.44h11.23v10.44h13.18v10.01H978.79z"/>
	</g>
	<g>
		<path d="M913.81,519.22l21.24-25.78l-20.88-24.63h17.93l12.75,15.7l12.17-15.7h17.21l-20.95,24.99l21.46,25.42H956.8l-13.11-16.2
			l-12.46,16.2H913.81z"/>
	</g>
	<g>
		<path d="M1132.28,514.35h-9.87v-10.44h13.32l2.81-8.5h-11.52v-10.44h14.98l3.46-10.51h13.68l-3.46,10.51h14.26l3.46-10.51h13.68
			l-3.46,10.51h10.37v10.44h-13.83l-2.81,8.5h12.02v10.44h-15.48l-3.46,10.51h-13.75l3.46-10.51h-14.18l-3.46,10.51h-13.68
			L1132.28,514.35z M1163.61,503.91l2.88-8.5h-14.26l-2.81,8.5H1163.61z"/>
	</g>
	<g>
		<path d="M131.69,1275.38l-29.61-38.7h22.5l16.74,23.49l17.01-23.49h21.42l-29.79,38.88v24.12h-18.27V1275.38z"/>
		<path d="M170.93,1268.27c0-20.25,15.39-32.58,41.13-32.58c25.65,0,41.04,12.33,41.04,32.58c0,19.98-15.39,32.4-41.04,32.4
			C186.32,1300.67,170.93,1288.25,170.93,1268.27z M234.37,1268.27c0-12.06-7.38-18.18-22.32-18.18c-15.03,0-22.41,6.12-22.41,18.18
			c0,11.88,7.38,18,22.41,18C226.99,1286.27,234.37,1280.15,234.37,1268.27z"/>
		<path d="M291.16,1300.67c-22.95,0-36-10.8-36-29.7v-34.29h18.27v34.29c0,10.26,5.85,15.3,17.73,15.3
			c12.06,0,17.91-5.04,17.91-15.3v-34.29h18.27v34.29C327.34,1289.87,314.2,1300.67,291.16,1300.67z"/>
		<path d="M328.98,1236.69h15.93l8.55,41.76l10.17-41.76h14.22l10.35,42.48l8.64-42.48h15.93l-16.02,63h-15.48l-10.71-41.13
			l-10.8,41.13h-15.3L328.98,1236.69z"/>
		<path d="M457.95,1287.98H423.3l-5.94,11.7H398.1l33.57-63h18.63l33.57,63h-19.98L457.95,1287.98z M451.02,1274.39l-10.35-20.43
			l-10.44,20.43H451.02z"/>
		<path d="M481.17,1236.69h16.47l26.1,40.68v-40.68h14.85v63h-16.47l-26.1-40.68v40.68h-14.85V1236.69z"/>
		<path d="M554.7,1249.28h-12.51v-12.6h39.51v12.6h-12.6v50.4h-14.4V1249.28z"/>
	</g>
</g>
<g>
	<g>
		<path d="M1114.38,844.69c27.73,0,43.58,6.02,48.01,17.35l-20.52,4.04c-2.85-4.91-10.7-7.13-27.57-7.13
			c-22.82,0-32.8,4.52-32.8,14.74c0,9.98,9.98,14.42,32.8,14.42c16.32,0,25.35-2.14,28.6-6.89h-30.98v-11.88h52.05v31.93h-15.37
			l-1.74-9.59c-6.02,6.89-17.11,10.7-36.13,10.7c-31.3,0-48.65-9.98-48.65-28.68C1062.08,854.75,1080.23,844.69,1114.38,844.69z"/>
		<path d="M1165.4,873.53c0-18.3,9.03-28.44,23.85-28.44c14.9,0,23.85,10.14,23.85,28.44c0,18.22-8.95,28.44-23.85,28.44
			C1174.44,901.97,1165.4,891.75,1165.4,873.53z M1199.08,873.53c0-11.57-3.25-16.95-9.82-16.95c-6.5,0-9.74,5.39-9.74,16.95
			c0,11.49,3.25,16.95,9.74,16.95C1195.83,890.49,1199.08,885.02,1199.08,873.53z"/>
		<path d="M1220.15,845.8h85.33v14.26h-66.32v9.9h60.06v14.26h-60.06v17.03h-19.01V845.8z"/>
		<path d="M1326.8,901.97c-13.47,0-21.15-7.05-21.15-20.52V845.8h13.63v36.6c0,5.39,2.54,8.08,7.53,8.08c5.07,0,7.61-2.69,7.61-8.08
			v-36.6h13.63v35.65C1348.03,894.92,1340.43,901.97,1326.8,901.97z"/>
		<path d="M1350.97,845.8h22.98c11.17,0,17.75,6.5,17.75,17.91c0,8.16-3.8,13.63-10.54,15.85l12.68,21.71h-15.21l-10.85-19.65h-3.09
			v19.65h-13.71V845.8z M1364.67,856.89v13.55h7.21c4.12,0,6.34-2.38,6.34-6.73c0-4.44-2.22-6.81-6.34-6.81H1364.67z"/>
		<path d="M1401.83,856.89h-11.01V845.8h34.78v11.09h-11.09v44.37h-12.68V856.89z"/>
		<path d="M1427.19,845.8h12.68v21.47h10.7V845.8h12.68v55.46h-12.68v-22.9h-10.7v22.9h-12.68V845.8z"/>
		<path d="M1466.88,845.8h69.88v12.44h-52.85v8.56h47.3v12.36h-47.3v9.67h53.4v12.44h-70.43V845.8z"/>
		<path d="M1538.82,845.8h22.98c11.17,0,17.75,6.5,17.75,17.91c0,8.16-3.8,13.63-10.54,15.85l12.68,21.71h-15.21l-10.85-19.65h-3.09
			v19.65h-13.71V845.8z M1552.53,856.89v13.55h7.21c4.12,0,6.34-2.38,6.34-6.73c0-4.44-2.22-6.81-6.34-6.81H1552.53z"/>
	</g>
	<g>
		<path d="M364.61,882.44c2.46,4.52,10.38,6.74,27.49,6.74c22.18,0,28.84-1.43,28.84-4.75c0-2.93-1.9-3.57-13.31-3.88l-34.15-1.03
			c-19.65-0.55-27.81-6.58-27.81-16.08c0-12.44,14.26-18.86,46.43-18.86c27.1,0,42.55,5.23,46.67,15.77l-20.52,3.25
			c-2.14-3.96-9.67-5.94-26.15-5.94c-21.23,0-27.02,1.35-27.02,4.6c0,2.61,2.61,3.49,12.2,3.72l35.81,1.03
			c18.86,0.55,27.25,6.5,27.25,15.77c0,11.88-12.6,19.49-48.25,19.49c-27.57,0-43.66-5.55-48.01-16.56L364.61,882.44z"/>
		<path d="M469.35,890.92h-17.19l-2.93,10.22h-13.15l17.75-55.46h14.58l17.75,55.46h-13.86L469.35,890.92z M466.26,879.83
			l-5.47-19.17l-5.47,19.17H466.26z"/>
		<path d="M489.63,856.77h-11.01v-11.09h34.78v11.09H502.3v44.37h-12.68V856.77z"/>
		<path d="M514.24,845.68h12.68v55.46h-12.68V845.68z"/>
		<path d="M538.56,882.36c0.32,5.86,2.46,8.72,6.58,8.72c3.41,0,5.31-1.74,5.31-4.83c0-3.01-1.51-4.52-5.94-6.26l-4.67-1.82
			c-7.92-3.09-11.96-8.24-11.96-16.72c0-10.22,6.5-16.4,17.19-16.4s16.32,5.47,17.67,17.03l-11.88,1.58
			c-0.32-5.47-2.06-7.92-5.55-7.92c-3.25,0-5.15,1.82-5.15,4.99c0,3.17,1.66,4.52,7.13,6.73l4.28,1.74
			c8.32,3.41,11.57,7.84,11.57,16.24c0,10.14-6.81,16.32-17.99,16.32c-11.8,0-16.95-4.99-18.46-17.83L538.56,882.36z"/>
		<path d="M564.55,845.68h54.99v12.68h-38.9v11.25h34.15v12.68h-34.15v18.86h-16.08V845.68z"/>
		<path d="M629.44,881.17l-13.79-35.49h13.07l7.53,21.55l7.13-21.55h12.6l-13.87,35.65v19.81h-12.68V881.17z"/>
		<path d="M664.06,845.68h15.37l60.21,39.85v-39.85h15.45v55.46h-15.45l-60.21-39.85v39.85h-15.37V845.68z"/>
		<path d="M757.64,845.68h28.05v11.09h-15.61v10.54h13.47v11.09h-13.47v11.65h16v11.09h-28.44V845.68z"/>
		<path d="M787.67,845.68h34.07v11.49h-20.52v10.06h17.43v11.33h-17.43v11.09h21.15v11.49h-34.7V845.68z"/>
		<path d="M824.75,845.68h23.61c18.14,0,28.92,10.46,28.92,27.97c0,17.27-10.78,27.49-28.92,27.49h-23.61V845.68z M862.22,873.65
			c0-10.38-4.91-16.08-13.86-16.08h-8.95v31.69h8.95C857.31,889.25,862.22,883.71,862.22,873.65z"/>
		<path d="M888.85,882.36c0.32,5.86,2.46,8.72,6.58,8.72c3.41,0,5.31-1.74,5.31-4.83c0-3.01-1.51-4.52-5.94-6.26l-4.67-1.82
			c-7.92-3.09-11.96-8.24-11.96-16.72c0-10.22,6.5-16.4,17.19-16.4c10.7,0,16.32,5.47,17.67,17.03l-11.88,1.58
			c-0.32-5.47-2.06-7.92-5.55-7.92c-3.25,0-5.15,1.82-5.15,4.99c0,3.17,1.66,4.52,7.13,6.73l4.28,1.74
			c8.32,3.41,11.57,7.84,11.57,16.24c0,10.14-6.81,16.32-17.99,16.32c-11.8,0-16.95-4.99-18.46-17.83L888.85,882.36z"/>
	</g>
	<g>
		<path d="M345.99,813.69c0-10.46,10.28-16.34,28.73-16.34c18.45,0,28.73,5.88,28.73,16.34c0,10.41-10.33,16.34-28.73,16.34
			C356.31,830.03,345.99,824.11,345.99,813.69z M392.45,813.69c0-5.66-5.61-8.26-17.73-8.26s-17.73,2.6-17.73,8.26
			c0,5.66,5.61,8.26,17.73,8.26S392.45,819.35,392.45,813.69z"/>
		<path d="M430.38,814.23c11.54-3.37,13.65-4.04,13.65-5.97c0-2.38-3.23-3.23-12.62-3.23c-11.58,0-15.08,1.48-15.94,4.76l-11-2.07
			c2.38-7.27,10.15-10.37,26.89-10.37c16.21,0,24.29,3.37,24.29,9.92c0,5.34-3.14,8.22-21.32,12.71l-5.43,1.35h26.94v8.08h-50.55
			v-7.9L430.38,814.23z"/>
	</g>
	<g>
		<path d="M1716.5,813.69c0-10.46,10.28-16.34,28.73-16.34c18.45,0,28.73,5.88,28.73,16.34c0,10.41-10.33,16.34-28.73,16.34
			S1716.5,824.11,1716.5,813.69z M1762.96,813.69c0-5.66-5.61-8.26-17.73-8.26c-12.12,0-17.73,2.6-17.73,8.26
			c0,5.66,5.61,8.26,17.73,8.26C1757.35,821.95,1762.96,819.35,1762.96,813.69z"/>
		<path d="M1800.89,814.23c11.54-3.37,13.65-4.04,13.65-5.97c0-2.38-3.23-3.23-12.62-3.23c-11.58,0-15.08,1.48-15.94,4.76l-11-2.07
			c2.38-7.27,10.15-10.37,26.89-10.37c16.21,0,24.29,3.37,24.29,9.92c0,5.34-3.14,8.22-21.32,12.71l-5.43,1.35h26.94v8.08h-50.55
			v-7.9L1800.89,814.23z"/>
	</g>
	<g>
		<path d="M1766.89,1247.23c27.73,0,43.58,6.02,48.01,17.35l-20.52,4.04c-2.85-4.91-10.7-7.13-27.57-7.13
			c-22.82,0-32.8,4.52-32.8,14.74c0,9.98,9.98,14.42,32.8,14.42c16.32,0,25.35-2.14,28.6-6.89h-30.98v-11.88h52.05v31.93h-15.37
			l-1.74-9.59c-6.02,6.89-17.11,10.7-36.13,10.7c-31.3,0-48.65-9.98-48.65-28.68C1714.6,1257.29,1732.74,1247.23,1766.89,1247.23z"
			/>
		<path d="M1817.92,1276.07c0-18.3,9.03-28.44,23.85-28.44c14.9,0,23.85,10.14,23.85,28.44c0,18.22-8.95,28.44-23.85,28.44
			C1826.95,1304.51,1817.92,1294.29,1817.92,1276.07z M1851.59,1276.07c0-11.57-3.25-16.95-9.83-16.95c-6.5,0-9.74,5.39-9.74,16.95
			c0,11.49,3.25,16.96,9.74,16.96C1848.34,1293.02,1851.59,1287.56,1851.59,1276.07z"/>
		<path d="M1889.62,1284.86c1.98,5.07,8.48,7.53,21.95,7.53c16.8,0,22.11-1.58,22.11-4.83c0-3.01-1.9-4.04-11.89-4.6l-24.8-0.95
			c-16.88-0.95-24.17-6.74-24.17-16.16c0-11.89,12.6-18.54,38.58-18.54c22.66,0,35.26,5.39,38.58,16.24l-18.38,2.77
			c-1.82-4.52-7.61-6.58-20.36-6.58c-15.85,0-20.52,1.59-20.52,4.75c0,2.77,2.3,3.88,10.85,4.36l25.83,0.95
			c16.64,1.03,24.09,6.66,24.09,16.08c0,11.65-11.41,18.94-40.09,18.94c-23.45,0-36.68-5.63-40.17-17.19L1889.62,1284.86z"/>
		<path d="M1970.52,1304.43c-11.49,0-17.67-5.55-17.67-18.22v-37.87h12.68v39.22c0,4.12,1.43,5.78,4.99,5.78s5.07-1.66,5.07-5.78
			v-39.22h12.68v37.87C1988.26,1298.89,1982.16,1304.43,1970.52,1304.43z"/>
		<path d="M2008.39,1247.7c10.93,0,16.96,6.42,18.7,20.12l-12.28,2.38c-0.87-8.08-2.69-11.41-6.42-11.41
			c-4.52,0-6.34,4.99-6.34,17.27s1.82,17.27,6.34,17.27c3.88,0,5.78-3.41,6.5-11.73l12.52,2.38c-2.3,14.1-8.16,20.44-19.02,20.44
			c-12.68,0-19.41-9.82-19.41-28.36C1988.98,1257.61,1995.71,1247.7,2008.39,1247.7z"/>
		<path d="M2046.1,1247.7c10.93,0,16.96,6.42,18.7,20.12l-12.28,2.38c-0.87-8.08-2.69-11.41-6.42-11.41
			c-4.52,0-6.34,4.99-6.34,17.27s1.82,17.27,6.34,17.27c3.88,0,5.78-3.41,6.5-11.73l12.52,2.38c-2.3,14.1-8.16,20.44-19.02,20.44
			c-12.68,0-19.41-9.82-19.41-28.36C2026.69,1257.61,2033.43,1247.7,2046.1,1247.7z"/>
		<path d="M2066.23,1248.34h28.05v11.09h-15.61v10.54h13.47v11.09h-13.47v11.65h16v11.09h-28.44V1248.34z"/>
		<path d="M2096.1,1248.34h54.99v12.12h-39.14v9.19h34.39v11.88h-34.39v10.14h39.85v12.12h-55.7V1248.34z"/>
		<path d="M2154.18,1248.34h15.53c14.66,0,21.87,9.19,21.87,27.97c0,18.46-7.21,27.49-21.87,27.49h-15.53V1248.34z M2178.5,1276.31
			c0-11.96-2.61-16.88-8.87-16.88h-2.77v33.28h2.77C2175.88,1292.71,2178.5,1287.95,2178.5,1276.31z"/>
	</g>
	<g>
		<path d="M1716.5,1216.35c0-10.46,10.28-16.34,28.73-16.34c18.45,0,28.73,5.88,28.73,16.34c0,10.41-10.33,16.34-28.73,16.34
			S1716.5,1226.77,1716.5,1216.35z M1762.96,1216.35c0-5.66-5.61-8.26-17.73-8.26c-12.12,0-17.73,2.6-17.73,8.26
			c0,5.66,5.61,8.26,17.73,8.26C1757.35,1224.61,1762.96,1222.01,1762.96,1216.35z"/>
		<path d="M1800.89,1216.89c11.54-3.37,13.65-4.04,13.65-5.97c0-2.38-3.23-3.23-12.62-3.23c-11.58,0-15.08,1.48-15.94,4.76l-11-2.07
			c2.38-7.27,10.15-10.37,26.89-10.37c16.21,0,24.29,3.37,24.29,9.92c0,5.34-3.14,8.22-21.32,12.71l-5.43,1.35h26.94v8.08h-50.55
			v-7.9L1800.89,1216.89z"/>
	</g>
	<g>
		<path d="M1766.89,1766.35c27.73,0,43.58,6.02,48.01,17.35l-20.52,4.04c-2.85-4.91-10.7-7.13-27.57-7.13
			c-22.82,0-32.8,4.52-32.8,14.74c0,9.98,9.98,14.42,32.8,14.42c16.32,0,25.35-2.14,28.6-6.89h-30.98v-11.89h52.05v31.93h-15.37
			l-1.74-9.59c-6.02,6.89-17.11,10.7-36.13,10.7c-31.3,0-48.65-9.98-48.65-28.68C1714.6,1776.41,1732.74,1766.35,1766.89,1766.35z"
			/>
		<path d="M1817.92,1795.19c0-18.3,9.03-28.44,23.85-28.44c14.9,0,23.85,10.14,23.85,28.44c0,18.22-8.95,28.44-23.85,28.44
			C1826.95,1823.63,1817.92,1813.41,1817.92,1795.19z M1851.59,1795.19c0-11.57-3.25-16.96-9.83-16.96c-6.5,0-9.74,5.39-9.74,16.96
			c0,11.49,3.25,16.95,9.74,16.95C1848.34,1812.15,1851.59,1806.68,1851.59,1795.19z"/>
		<path d="M1889.62,1803.99c1.98,5.07,8.48,7.53,21.95,7.53c16.8,0,22.11-1.58,22.11-4.83c0-3.01-1.9-4.04-11.89-4.6l-24.8-0.95
			c-16.88-0.95-24.17-6.73-24.17-16.16c0-11.88,12.6-18.54,38.58-18.54c22.66,0,35.26,5.39,38.58,16.24l-18.38,2.77
			c-1.82-4.52-7.61-6.58-20.36-6.58c-15.85,0-20.52,1.59-20.52,4.75c0,2.77,2.3,3.88,10.85,4.36l25.83,0.95
			c16.64,1.03,24.09,6.66,24.09,16.08c0,11.65-11.41,18.94-40.09,18.94c-23.45,0-36.68-5.63-40.17-17.19L1889.62,1803.99z"/>
		<path d="M1970.52,1823.56c-11.49,0-17.67-5.55-17.67-18.22v-37.87h12.68v39.22c0,4.12,1.43,5.78,4.99,5.78s5.07-1.66,5.07-5.78
			v-39.22h12.68v37.87C1988.26,1818.01,1982.16,1823.56,1970.52,1823.56z"/>
		<path d="M2008.39,1766.83c10.93,0,16.96,6.42,18.7,20.12l-12.28,2.38c-0.87-8.08-2.69-11.41-6.42-11.41
			c-4.52,0-6.34,4.99-6.34,17.27c0,12.28,1.82,17.27,6.34,17.27c3.88,0,5.78-3.41,6.5-11.73l12.52,2.38
			c-2.3,14.1-8.16,20.44-19.02,20.44c-12.68,0-19.41-9.82-19.41-28.36C1988.98,1776.73,1995.71,1766.83,2008.39,1766.83z"/>
		<path d="M2046.1,1766.83c10.93,0,16.96,6.42,18.7,20.12l-12.28,2.38c-0.87-8.08-2.69-11.41-6.42-11.41
			c-4.52,0-6.34,4.99-6.34,17.27c0,12.28,1.82,17.27,6.34,17.27c3.88,0,5.78-3.41,6.5-11.73l12.52,2.38
			c-2.3,14.1-8.16,20.44-19.02,20.44c-12.68,0-19.41-9.82-19.41-28.36C2026.69,1776.73,2033.43,1766.83,2046.1,1766.83z"/>
		<path d="M2066.23,1767.46h28.05v11.09h-15.61v10.54h13.47v11.09h-13.47v11.65h16v11.09h-28.44V1767.46z"/>
		<path d="M2096.1,1767.46h54.99v12.12h-39.14v9.19h34.39v11.88h-34.39v10.14h39.85v12.12h-55.7V1767.46z"/>
		<path d="M2154.18,1767.46h15.53c14.66,0,21.87,9.19,21.87,27.97c0,18.46-7.21,27.49-21.87,27.49h-15.53V1767.46z M2178.5,1795.43
			c0-11.96-2.61-16.88-8.87-16.88h-2.77v33.28h2.77C2175.88,1811.83,2178.5,1807.08,2178.5,1795.43z"/>
	</g>
	<g>
		<path d="M1716,1612.29c0-10.46,10.28-16.34,28.73-16.34c18.45,0,28.73,5.88,28.73,16.34c0,10.42-10.33,16.34-28.73,16.34
			S1716,1622.71,1716,1612.29z M1762.46,1612.29c0-5.66-5.61-8.26-17.73-8.26c-12.12,0-17.73,2.6-17.73,8.26
			c0,5.66,5.61,8.26,17.73,8.26C1756.85,1620.55,1762.46,1617.95,1762.46,1612.29z"/>
		<path d="M1800.39,1612.83c11.54-3.37,13.65-4.04,13.65-5.97c0-2.38-3.23-3.23-12.62-3.23c-11.58,0-15.08,1.48-15.94,4.76l-11-2.07
			c2.38-7.27,10.15-10.37,26.89-10.37c16.21,0,24.29,3.37,24.29,9.92c0,5.34-3.14,8.22-21.32,12.71l-5.43,1.35h26.94v8.08h-50.55
			v-7.9L1800.39,1612.83z"/>
	</g>
	<g>
		<path d="M364.61,1096.13c2.46,4.52,10.38,6.73,27.49,6.73c22.18,0,28.84-1.43,28.84-4.75c0-2.93-1.9-3.57-13.31-3.88l-34.15-1.03
			c-19.65-0.55-27.81-6.58-27.81-16.08c0-12.44,14.26-18.86,46.43-18.86c27.1,0,42.55,5.23,46.67,15.77l-20.52,3.25
			c-2.14-3.96-9.67-5.94-26.15-5.94c-21.23,0-27.02,1.35-27.02,4.6c0,2.61,2.61,3.49,12.2,3.72l35.81,1.03
			c18.86,0.55,27.25,6.5,27.25,15.77c0,11.88-12.6,19.49-48.25,19.49c-27.57,0-43.66-5.55-48.01-16.56L364.61,1096.13z"/>
		<path d="M469.35,1104.61h-17.19l-2.93,10.22h-13.15l17.75-55.46h14.58l17.75,55.46h-13.86L469.35,1104.61z M466.26,1093.52
			l-5.47-19.17l-5.47,19.17H466.26z"/>
		<path d="M489.63,1070.46h-11.01v-11.09h34.78v11.09H502.3v44.37h-12.68V1070.46z"/>
		<path d="M514.24,1059.37h12.68v55.46h-12.68V1059.37z"/>
		<path d="M538.56,1096.05c0.32,5.86,2.46,8.72,6.58,8.72c3.41,0,5.31-1.74,5.31-4.83c0-3.01-1.51-4.52-5.94-6.26l-4.67-1.82
			c-7.92-3.09-11.96-8.24-11.96-16.72c0-10.22,6.5-16.4,17.19-16.4s16.32,5.47,17.67,17.03l-11.88,1.58
			c-0.32-5.47-2.06-7.92-5.55-7.92c-3.25,0-5.15,1.82-5.15,4.99s1.66,4.52,7.13,6.73l4.28,1.74c8.32,3.41,11.57,7.84,11.57,16.24
			c0,10.14-6.81,16.32-17.99,16.32c-11.8,0-16.95-4.99-18.46-17.83L538.56,1096.05z"/>
		<path d="M562.73,1059.37h28.05v11.09h-15.61v12.91h13.47v11.09h-13.47v20.36h-12.44V1059.37z"/>
		<path d="M599.81,1094.87l-13.79-35.49h13.07l7.53,21.55l7.13-21.55h12.6l-13.87,35.65v19.81h-12.68V1094.87z"/>
		<path d="M634.43,1059.37h15.37l60.21,39.85v-39.85h15.45v55.46h-15.45l-60.21-39.85v39.85h-15.37V1059.37z"/>
		<path d="M728,1059.37h28.05v11.09h-15.61V1081h13.47v11.09h-13.47v11.65h16v11.09H728V1059.37z"/>
		<path d="M758.03,1059.37h34.07v11.49h-20.52v10.06h17.43v11.33h-17.43v11.09h21.15v11.49h-34.7V1059.37z"/>
		<path d="M795.11,1059.37h23.61c18.14,0,28.92,10.46,28.92,27.97c0,17.27-10.78,27.49-28.92,27.49h-23.61V1059.37z M832.59,1087.34
			c0-10.38-4.91-16.08-13.86-16.08h-8.95v31.69h8.95C827.68,1102.95,832.59,1097.4,832.59,1087.34z"/>
		<path d="M859.21,1096.05c0.32,5.86,2.46,8.72,6.58,8.72c3.41,0,5.31-1.74,5.31-4.83c0-3.01-1.51-4.52-5.94-6.26l-4.67-1.82
			c-7.92-3.09-11.96-8.24-11.96-16.72c0-10.22,6.5-16.4,17.19-16.4s16.32,5.47,17.67,17.03l-11.88,1.58
			c-0.32-5.47-2.06-7.92-5.55-7.92c-3.25,0-5.15,1.82-5.15,4.99s1.66,4.52,7.13,6.73l4.28,1.74c8.32,3.41,11.57,7.84,11.57,16.24
			c0,10.14-6.81,16.32-17.99,16.32c-11.8,0-16.95-4.99-18.46-17.83L859.21,1096.05z"/>
	</g>
	<g>
		<path d="M345.99,1027.39c0-10.46,10.28-16.34,28.73-16.34c18.45,0,28.73,5.88,28.73,16.34c0,10.41-10.33,16.34-28.73,16.34
			C356.31,1043.73,345.99,1037.8,345.99,1027.39z M392.45,1027.39c0-5.66-5.61-8.26-17.73-8.26s-17.73,2.6-17.73,8.26
			c0,5.66,5.61,8.26,17.73,8.26S392.45,1033.04,392.45,1027.39z"/>
		<path d="M430.38,1027.93c11.54-3.37,13.65-4.04,13.65-5.97c0-2.38-3.23-3.23-12.62-3.23c-11.58,0-15.08,1.48-15.94,4.76l-11-2.07
			c2.38-7.27,10.15-10.37,26.89-10.37c16.21,0,24.29,3.37,24.29,9.92c0,5.34-3.14,8.22-21.32,12.71l-5.43,1.35h26.94v8.08h-50.55
			v-7.9L430.38,1027.93z"/>
	</g>
	<g>
		<path d="M364.61,1269.94c2.46,4.52,10.38,6.74,27.49,6.74c22.18,0,28.84-1.43,28.84-4.75c0-2.93-1.9-3.57-13.31-3.88l-34.15-1.03
			c-19.65-0.55-27.81-6.58-27.81-16.08c0-12.44,14.26-18.86,46.43-18.86c27.1,0,42.55,5.23,46.67,15.77l-20.52,3.25
			c-2.14-3.96-9.67-5.94-26.15-5.94c-21.23,0-27.02,1.35-27.02,4.6c0,2.61,2.61,3.49,12.2,3.72l35.81,1.03
			c18.86,0.55,27.25,6.5,27.25,15.77c0,11.88-12.6,19.49-48.25,19.49c-27.57,0-43.66-5.55-48.01-16.56L364.61,1269.94z"/>
		<path d="M469.35,1278.42h-17.19l-2.93,10.22h-13.15l17.75-55.46h14.58l17.75,55.46h-13.86L469.35,1278.42z M466.26,1267.32
			l-5.47-19.17l-5.47,19.17H466.26z"/>
		<path d="M489.63,1244.27h-11.01v-11.09h34.78v11.09H502.3v44.37h-12.68V1244.27z"/>
		<path d="M514.24,1233.18h12.68v55.46h-12.68V1233.18z"/>
		<path d="M538.56,1269.86c0.32,5.86,2.46,8.72,6.58,8.72c3.41,0,5.31-1.74,5.31-4.83c0-3.01-1.51-4.52-5.94-6.26l-4.67-1.82
			c-7.92-3.09-11.96-8.24-11.96-16.72c0-10.22,6.5-16.4,17.19-16.4s16.32,5.47,17.67,17.03l-11.88,1.58
			c-0.32-5.47-2.06-7.92-5.55-7.92c-3.25,0-5.15,1.82-5.15,4.99c0,3.17,1.66,4.52,7.13,6.73l4.28,1.74
			c8.32,3.41,11.57,7.84,11.57,16.24c0,10.14-6.81,16.32-17.99,16.32c-11.8,0-16.95-4.99-18.46-17.83L538.56,1269.86z"/>
		<path d="M562.73,1233.18h28.05v11.09h-15.61v12.91h13.47v11.09h-13.47v20.36h-12.44V1233.18z"/>
		<path d="M602.5,1267.56l-16.48-34.39h14.82l9.03,21.55l8.87-21.55h14.34l-16.88,34.39v21.07H602.5V1267.56z"/>
		<path d="M641.17,1233.18h15.37l60.21,39.85v-39.85h15.45v55.46h-15.45l-60.21-39.85v39.85h-15.37V1233.18z"/>
		<path d="M734.74,1233.18h28.05v11.09h-15.61v10.54h13.47v11.09h-13.47v11.65h16v11.09h-28.44V1233.18z"/>
		<path d="M764.77,1233.18h34.07v11.49h-20.52v10.06h17.43v11.33h-17.43v11.09h21.15v11.49h-34.7V1233.18z"/>
		<path d="M801.85,1233.18h23.61c18.14,0,28.92,10.46,28.92,27.97c0,17.27-10.78,27.49-28.92,27.49h-23.61V1233.18z M839.32,1261.15
			c0-10.38-4.91-16.08-13.86-16.08h-8.95v31.69h8.95C834.41,1276.75,839.32,1271.21,839.32,1261.15z"/>
		<path d="M865.95,1269.86c0.32,5.86,2.46,8.72,6.58,8.72c3.41,0,5.31-1.74,5.31-4.83c0-3.01-1.51-4.52-5.94-6.26l-4.67-1.82
			c-7.92-3.09-11.96-8.24-11.96-16.72c0-10.22,6.5-16.4,17.19-16.4c10.7,0,16.32,5.47,17.67,17.03l-11.88,1.58
			c-0.32-5.47-2.06-7.92-5.55-7.92c-3.25,0-5.15,1.82-5.15,4.99c0,3.17,1.66,4.52,7.13,6.73l4.28,1.74
			c8.32,3.41,11.57,7.84,11.57,16.24c0,10.14-6.81,16.32-17.99,16.32c-11.8,0-16.95-4.99-18.46-17.83L865.95,1269.86z"/>
	</g>
	<g>
		<path d="M345.99,1201.19c0-10.46,10.28-16.34,28.73-16.34c18.45,0,28.73,5.88,28.73,16.34c0,10.42-10.33,16.34-28.73,16.34
			C356.31,1217.54,345.99,1211.61,345.99,1201.19z M392.45,1201.19c0-5.66-5.61-8.26-17.73-8.26s-17.73,2.6-17.73,8.26
			c0,5.66,5.61,8.26,17.73,8.26S392.45,1206.85,392.45,1201.19z"/>
		<path d="M430.38,1201.73c11.54-3.37,13.65-4.04,13.65-5.97c0-2.38-3.23-3.23-12.62-3.23c-11.58,0-15.08,1.48-15.94,4.76l-11-2.07
			c2.38-7.27,10.15-10.37,26.89-10.37c16.21,0,24.29,3.37,24.29,9.92c0,5.34-3.14,8.22-21.32,12.71l-5.43,1.35h26.94v8.08h-50.55
			v-7.9L430.38,1201.73z"/>
	</g>
	<g>
		<rect x="1065.12" y="808.06" width="72.37" height="10.08"/>
		<rect x="1093.82" y="791.04" width="14.97" height="44.34"/>
	</g>
	<polygon points="2479.93,808.06 2451.23,808.06 2451.23,791.04 2436.25,791.04 2436.25,808.06 2407.56,808.06 2407.56,818.14 
		2436.25,818.14 2436.25,835.38 2451.23,835.38 2451.23,818.14 2479.93,818.14 	"/>
	<g>
		<path d="M1735.12,882.44c2.46,4.52,10.38,6.73,27.49,6.73c22.18,0,28.84-1.43,28.84-4.75c0-2.93-1.9-3.57-13.31-3.88l-34.15-1.03
			c-19.65-0.55-27.81-6.58-27.81-16.08c0-12.44,14.26-18.86,46.43-18.86c27.1,0,42.55,5.23,46.67,15.77l-20.52,3.25
			c-2.14-3.96-9.67-5.94-26.15-5.94c-21.23,0-27.02,1.35-27.02,4.6c0,2.61,2.61,3.49,12.2,3.72l35.81,1.03
			c18.86,0.55,27.26,6.5,27.26,15.77c0,11.88-12.6,19.49-48.25,19.49c-27.57,0-43.66-5.55-48.01-16.56L1735.12,882.44z"/>
		<path d="M1818.07,856.77h-11.01v-11.09h34.78v11.09h-11.09v44.37h-12.68V856.77z"/>
		<path d="M1843.43,845.68h28.05v11.09h-15.61v10.54h13.47v11.09h-13.47v11.65h16v11.09h-28.44V845.68z"/>
		<path d="M1875.04,845.68h16.8c11.96,0,18.38,6.89,18.38,19.81c0,12.6-6.81,19.33-19.57,19.33h-2.93v16.32h-12.68V845.68z
			 M1887.72,856.45v17.59h2.61c5.07,0,7.21-2.54,7.21-8.56c0-6.42-2.14-9.03-7.21-9.03H1887.72z"/>
		<path d="M1920.68,845.68h85.33v14.26h-66.32v9.9h60.06v14.26h-60.06v17.03h-19.01V845.68z"/>
		<path d="M2003.87,873.41c0-19.33,6.73-28.36,19.41-28.36s19.41,9.03,19.41,28.36c0,19.33-6.73,28.36-19.41,28.36
			S2003.87,892.74,2003.87,873.41z M2029.62,873.41c0-12.28-1.82-17.27-6.34-17.27c-4.52,0-6.34,4.99-6.34,17.27
			c0,12.28,1.82,17.27,6.34,17.27C2027.8,890.68,2029.62,885.69,2029.62,873.41z"/>
		<path d="M2044.92,845.68h18.7c10.85,0,16.72,6.26,16.72,17.91c0,7.76-2.93,13.07-8.4,15.53l10.38,22.03h-13.87l-8.48-19.65h-2.38
			v19.65h-12.68V845.68z M2057.59,856.45v14.26h4.6c3.72,0,5.7-2.46,5.7-7.13s-1.98-7.13-5.7-7.13H2057.59z"/>
		<path d="M2078.89,845.68h12.6l6.18,35.73l6.81-35.73h11.73l6.97,36.6l6.26-36.6h12.76l-11.57,55.46h-12.99l-7.45-36.37
			l-7.45,36.37h-13.15L2078.89,845.68z"/>
		<path d="M2167.87,890.92h-17.19l-2.93,10.22h-13.15l17.75-55.46h14.58l17.75,55.46h-13.86L2167.87,890.92z M2164.78,879.83
			l-5.47-19.17l-5.47,19.17H2164.78z"/>
		<path d="M2183.79,845.68h22.98c11.17,0,17.75,6.5,17.75,17.91c0,8.16-3.8,13.63-10.54,15.85l12.68,21.71h-15.21l-10.85-19.65
			h-3.09v19.65h-13.71V845.68z M2197.5,856.77v13.55h7.21c4.12,0,6.34-2.38,6.34-6.73c0-4.44-2.22-6.81-6.34-6.81H2197.5z"/>
		<path d="M2228.4,845.68h15.53c14.66,0,21.87,9.19,21.87,27.97c0,18.46-7.21,27.49-21.87,27.49h-15.53V845.68z M2252.72,873.65
			c0-11.96-2.61-16.88-8.87-16.88h-2.77v33.28h2.77C2250.11,890.05,2252.72,885.29,2252.72,873.65z"/>
	</g>
	<g>
		<path d="M1765.03,1082.9v11.88h30.94c-0.59,0.87-1.36,1.65-2.32,2.33c-2.19,1.56-5.45,2.71-9.78,3.44
			c-4.33,0.74-9.82,1.11-16.47,1.11c-4.54,0-8.59-0.18-12.15-0.55c-3.56-0.37-6.64-0.92-9.22-1.66c-2.59-0.74-4.72-1.67-6.41-2.81
			c-1.69-1.13-2.94-2.48-3.76-4.04c-0.82-1.56-1.23-3.34-1.23-5.34c0-2.06,0.41-3.88,1.23-5.46c0.82-1.58,2.07-2.95,3.76-4.12
			c1.69-1.16,3.83-2.12,6.41-2.89c2.59-0.77,5.66-1.33,9.22-1.7c3.56-0.37,7.61-0.55,12.15-0.55c5.59,0,10.26,0.25,14.01,0.75
			c3.75,0.5,6.7,1.28,8.87,2.33c2.16,1.06,3.72,2.4,4.67,4.04l20.5-4.04c-1.48-3.8-4.22-6.98-8.23-9.54
			c-4.01-2.56-9.33-4.5-15.95-5.82c-6.62-1.32-14.55-1.98-23.79-1.98c-6.81,0-12.98,0.4-18.53,1.19
			c-5.54,0.79-10.41,1.98-14.61,3.56c-4.2,1.58-7.72,3.54-10.57,5.86c-2.85,2.32-4.99,5.02-6.41,8.07
			c-1.43,3.06-2.14,6.49-2.14,10.29c0,3.75,0.69,7.14,2.06,10.17c1.37,3.04,3.39,5.7,6.06,8c2.66,2.3,5.96,4.22,9.9,5.78
			c3.93,1.56,8.46,2.73,13.58,3.52c5.12,0.79,10.79,1.19,17.02,1.19c6.86,0,12.73-0.47,17.61-1.43c4.88-0.95,8.95-2.35,12.19-4.2
			c2.52-1.43,4.61-3.11,6.28-5.04l1.75,9.55h15.36v-31.9H1765.03z"/>
		<polygon points="1831.77,1103.72 1831.77,1092.09 1845.23,1092.09 1845.23,1081 1831.77,1081 1831.77,1070.47 1847.36,1070.47 
			1847.36,1059.39 1831.77,1059.39 1828.13,1059.39 1819.34,1059.39 1819.34,1114.81 1828.13,1114.81 1831.77,1114.81 
			1847.76,1114.81 1847.76,1103.72 		"/>
		<polygon points="1883.64,1059.39 1848.89,1059.39 1848.89,1070.47 1859.89,1070.47 1859.89,1114.81 1872.56,1114.81 
			1872.56,1070.47 1883.64,1070.47 		"/>
		<path d="M1950.54,1098.06c-1.74,1.45-4.13,2.53-7.16,3.25c-3.04,0.71-6.74,1.07-11.12,1.07c-3.54,0-6.66-0.2-9.38-0.59
			c-2.72-0.4-5.08-1-7.09-1.82c-2.01-0.82-3.68-1.83-5.03-3.05c-1.35-1.21-2.34-2.62-2.97-4.24c-0.63-1.61-0.95-3.47-0.95-5.58
			c0-2.06,0.32-3.9,0.95-5.54c0.63-1.64,1.62-3.06,2.97-4.28c1.35-1.21,3.02-2.22,5.03-3.01c2.01-0.79,4.38-1.39,7.13-1.78
			c2.74-0.4,5.86-0.59,9.34-0.59c4.28,0,7.9,0.33,10.89,0.99c2.98,0.66,5.36,1.69,7.13,3.09c1.77,1.4,2.99,3.15,3.68,5.26
			l18.53-3.64c-1.27-4.22-3.62-7.76-7.05-10.61c-3.43-2.85-7.94-5-13.54-6.45c-5.59-1.45-12.14-2.18-19.63-2.18
			c-5.49,0-10.5,0.42-15.04,1.27c-4.54,0.84-8.55,2.06-12.03,3.64c-3.48,1.58-6.44,3.56-8.87,5.94c-2.43,2.37-4.26,5.05-5.5,8.04
			c-1.24,2.98-1.86,6.27-1.86,9.86c0,3.01,0.42,5.81,1.27,8.39c0.84,2.59,2.1,4.95,3.76,7.09c1.66,2.14,3.72,4.03,6.18,5.66
			c2.45,1.64,5.28,3.02,8.47,4.16c3.19,1.14,6.77,1.99,10.73,2.57s8.26,0.87,12.9,0.87c7.55,0,14.09-0.73,19.63-2.18
			c5.54-1.45,10.03-3.64,13.46-6.57c3.43-2.93,5.75-6.58,6.97-10.96l-18.37-3.48C1953.42,1094.81,1952.28,1096.61,1950.54,1098.06z"
			/>
		<path d="M1987.15,1114.29c-2.45-0.76-4.63-1.94-6.53-3.52c-1.9-1.58-3.5-3.51-4.79-5.78c-1.29-2.27-2.28-4.91-2.97-7.92
			c-0.69-3.01-1.03-6.33-1.03-9.98c0-3.64,0.34-6.97,1.03-9.98c0.69-3.01,1.67-5.66,2.97-7.96c1.29-2.3,2.89-4.22,4.79-5.78
			c1.9-1.56,4.08-2.72,6.53-3.48c2.45-0.76,5.13-1.15,8.04-1.15c2.96,0,5.65,0.38,8.07,1.15c2.43,0.77,4.59,1.93,6.49,3.48
			c1.9,1.56,3.51,3.48,4.83,5.78c1.32,2.3,2.31,4.95,2.97,7.96c0.66,3.01,0.99,6.33,0.99,9.98c0,3.64-0.33,6.97-0.99,9.98
			c-0.66,3.01-1.65,5.66-2.97,7.96c-1.32,2.3-2.93,4.22-4.83,5.78c-1.9,1.56-4.06,2.72-6.49,3.48c-2.43,0.76-5.12,1.15-8.07,1.15
			C1992.29,1115.44,1989.61,1115.06,1987.15,1114.29z M1998.59,1103.37c1-0.45,1.89-1.11,2.65-1.98c0.76-0.87,1.4-1.98,1.9-3.32
			c0.5-1.35,0.87-2.93,1.11-4.75c0.24-1.82,0.36-3.89,0.36-6.21c0-2.32-0.12-4.39-0.36-6.21c-0.24-1.82-0.61-3.4-1.11-4.75
			c-0.5-1.35-1.14-2.45-1.9-3.33c-0.77-0.87-1.65-1.53-2.65-1.98c-1-0.45-2.14-0.67-3.4-0.67c-1.27,0-2.4,0.23-3.4,0.67
			c-1,0.45-1.89,1.11-2.65,1.98c-0.77,0.87-1.39,1.98-1.86,3.33c-0.47,1.35-0.84,2.93-1.11,4.75c-0.26,1.82-0.4,3.89-0.4,6.21
			c0,2.32,0.13,4.39,0.4,6.21c0.26,1.82,0.63,3.4,1.11,4.75c0.48,1.35,1.09,2.47,1.86,3.36c0.76,0.9,1.65,1.56,2.65,1.98
			c1,0.42,2.14,0.63,3.4,0.63C1996.46,1104.04,1997.59,1103.82,1998.59,1103.37z"/>
		<polygon points="2045.06,1059.39 2045.06,1091.55 2032.79,1059.39 2031.61,1059.39 2027.96,1059.39 2020.13,1059.39 
			2020.13,1114.81 2031.61,1114.81 2031.61,1082.65 2043.88,1114.81 2045.06,1114.81 2047.44,1114.81 2056.54,1114.81 
			2056.54,1059.39 		"/>
		<polygon points="2092.88,1059.39 2058.13,1059.39 2058.13,1070.47 2069.13,1070.47 2069.13,1114.81 2081.8,1114.81 
			2081.8,1070.47 2092.88,1070.47 		"/>
		<path d="M2121.63,1114.81h15.04l-12.4-21.68c0.77-0.26,1.5-0.56,2.19-0.92c2.64-1.35,4.66-3.27,6.06-5.78
			c1.4-2.51,2.1-5.55,2.1-9.14c0-2.85-0.4-5.38-1.19-7.6c-0.79-2.22-1.95-4.1-3.48-5.66c-1.53-1.56-3.39-2.72-5.58-3.48
			c-2.19-0.76-4.66-1.15-7.4-1.15h-8.95h-2.69h-10.85v55.42h13.54v-19.63h3.06L2121.63,1114.81z M2108.01,1070.47h6.97
			c1,0,1.89,0.15,2.65,0.44c0.76,0.29,1.43,0.71,1.98,1.27c0.55,0.55,0.96,1.27,1.23,2.14c0.26,0.87,0.4,1.86,0.4,2.97
			c0,1.11-0.13,2.1-0.4,2.97c-0.26,0.87-0.66,1.58-1.19,2.14c-0.53,0.55-1.19,0.98-1.98,1.27c-0.79,0.29-1.69,0.44-2.69,0.44h-6.97
			V1070.47z"/>
		<path d="M2159.4,1114.45c-3.77-0.82-7.11-2.06-10.02-3.72c-2.9-1.66-5.37-3.64-7.4-5.94c-2.03-2.3-3.59-4.92-4.67-7.88
			c-1.08-2.96-1.62-6.23-1.62-9.82c0-3.54,0.53-6.79,1.58-9.78c1.06-2.98,2.6-5.63,4.63-7.96c2.03-2.32,4.51-4.29,7.44-5.9
			c2.93-1.61,6.28-2.84,10.05-3.68c3.77-0.84,7.93-1.27,12.47-1.27c4.54,0,8.68,0.42,12.43,1.27c3.75,0.84,7.07,2.07,9.98,3.68
			c2.9,1.61,5.38,3.58,7.44,5.9c2.06,2.32,3.61,4.99,4.67,8c1.05,3.01,1.58,6.28,1.58,9.82c0,3.48-0.53,6.72-1.58,9.7
			c-1.06,2.98-2.61,5.63-4.67,7.96c-2.06,2.32-4.54,4.3-7.44,5.94c-2.9,1.64-6.23,2.86-9.98,3.68c-3.75,0.82-7.89,1.23-12.43,1.23
			C2167.33,1115.68,2163.18,1115.27,2159.4,1114.45z M2178.96,1102.42c2.14-0.45,3.98-1.09,5.54-1.94c1.56-0.84,2.85-1.91,3.88-3.21
			c1.03-1.29,1.79-2.77,2.3-4.43c0.5-1.66,0.75-3.55,0.75-5.66c0-2.16-0.25-4.09-0.75-5.78c-0.5-1.69-1.27-3.17-2.3-4.43
			c-1.03-1.27-2.32-2.33-3.88-3.21c-1.56-0.87-3.4-1.53-5.54-1.98c-2.14-0.45-4.5-0.67-7.09-0.67c-2.69,0-5.08,0.22-7.16,0.67
			c-2.09,0.45-3.92,1.11-5.5,1.98c-1.58,0.87-2.89,1.94-3.92,3.21c-1.03,1.27-1.81,2.75-2.34,4.43c-0.53,1.69-0.79,3.59-0.79,5.7
			c0,2.11,0.26,4.01,0.79,5.7c0.53,1.69,1.31,3.17,2.34,4.43c1.03,1.27,2.33,2.34,3.92,3.21c1.58,0.87,3.42,1.53,5.5,1.98
			c2.08,0.45,4.47,0.67,7.16,0.67C2174.46,1103.09,2176.82,1102.87,2178.96,1102.42z"/>
		<polygon points="2223.56,1103.33 2223.56,1059.39 2210.02,1059.39 2210.02,1114.81 2213.42,1114.81 2223.56,1114.81 
			2243.35,1114.81 2243.35,1103.33 		"/>
		<path d="M1735.8,1043.07c-3.02-0.46-5.69-1.15-8.01-2.06c-2.32-0.91-4.27-2.03-5.85-3.34c-1.59-1.32-2.78-2.83-3.59-4.53
			c-0.81-1.7-1.21-3.6-1.21-5.7c0-2.09,0.4-4,1.21-5.72c0.81-1.72,2-3.24,3.59-4.55c1.59-1.32,3.54-2.42,5.85-3.32
			c2.32-0.9,4.99-1.58,8.01-2.04c3.02-0.46,6.37-0.7,10.05-0.7c3.68,0,7.03,0.23,10.05,0.7c3.02,0.46,5.69,1.14,8.01,2.04
			c2.32,0.9,4.27,2,5.85,3.32c1.58,1.32,2.78,2.83,3.59,4.55c0.81,1.72,1.21,3.63,1.21,5.72c0,2.09-0.4,3.99-1.21,5.7
			c-0.81,1.7-2,3.22-3.59,4.53c-1.59,1.32-3.54,2.43-5.85,3.34c-2.32,0.91-4.99,1.6-8.01,2.06c-3.02,0.46-6.37,0.7-10.05,0.7
			C1742.17,1043.76,1738.82,1043.53,1735.8,1043.07z M1752.35,1035.37c1.91-0.21,3.57-0.53,4.98-0.96c1.41-0.43,2.57-0.98,3.5-1.64
			c0.93-0.66,1.61-1.43,2.06-2.31c0.45-0.88,0.67-1.89,0.67-3.03c0-1.14-0.22-2.15-0.67-3.03c-0.45-0.88-1.14-1.65-2.06-2.31
			c-0.93-0.66-2.09-1.2-3.5-1.64c-1.41-0.43-3.07-0.75-4.98-0.96c-1.91-0.21-4.08-0.31-6.5-0.31s-4.59,0.11-6.51,0.31
			c-1.91,0.21-3.57,0.53-4.98,0.96c-1.41,0.43-2.57,0.98-3.5,1.64c-0.93,0.66-1.61,1.43-2.06,2.31c-0.45,0.88-0.67,1.89-0.67,3.03
			c0,1.14,0.22,2.15,0.67,3.03c0.45,0.88,1.14,1.65,2.06,2.31c0.93,0.66,2.09,1.2,3.5,1.64c1.41,0.43,3.07,0.76,4.98,0.96
			c1.91,0.21,4.08,0.31,6.51,0.31S1750.44,1035.58,1752.35,1035.37z"/>
		<path d="M1799.77,1035.06l5.44-1.35c3.65-0.9,6.72-1.74,9.22-2.54c2.5-0.79,4.54-1.57,6.12-2.33c1.58-0.76,2.81-1.54,3.68-2.33
			c0.87-0.79,1.46-1.64,1.79-2.53c0.33-0.9,0.49-1.88,0.49-2.96c0-2.18-0.9-4.01-2.69-5.47c-1.79-1.46-4.49-2.57-8.1-3.32
			c-3.6-0.75-8.1-1.12-13.48-1.12c-5.56,0-10.19,0.36-13.88,1.08c-3.69,0.72-6.58,1.84-8.66,3.36c-2.08,1.53-3.52,3.5-4.33,5.92
			l10.99,2.06c0.3-1.11,0.96-2.01,1.97-2.71c1.02-0.7,2.63-1.22,4.84-1.55c2.21-0.33,5.25-0.49,9.11-0.49
			c3.11,0,5.59,0.11,7.45,0.31c1.85,0.21,3.18,0.55,3.97,1.03c0.79,0.48,1.19,1.11,1.19,1.88c0,0.39-0.11,0.73-0.31,1.03
			c-0.21,0.3-0.6,0.61-1.17,0.92c-0.57,0.31-1.36,0.65-2.38,1.01c-1.02,0.36-2.33,0.79-3.93,1.28c-1.6,0.49-3.55,1.07-5.85,1.73
			l-25.08,7.27v7.9h50.51v-8.07H1799.77z"/>
	</g>
	<g>
		<path d="M1722.62,1437.71h85.33v14.26h-66.32v9.9h60.06v14.26h-60.06v17.03h-19.01V1437.71z"/>
		<path d="M1811.74,1437.71h12.68v55.46h-12.68V1437.71z"/>
		<path d="M1826.72,1437.71h12.68l12.28,32.17v-32.17h11.49v55.46h-12.68L1838.2,1461v32.17h-11.49V1437.71z"/>
		<path d="M1865.86,1437.71h14.82c14.34,0,21.55,9.27,21.55,27.97c0,18.38-7.21,27.49-21.55,27.49h-14.82V1437.71z M1891.05,1465.68
			c0-12.83-3.25-18.46-10.46-18.46h-3.88v36.52h3.88C1887.8,1483.74,1891.05,1478.2,1891.05,1465.68z"/>
		<path d="M1909.91,1437.71h49.36c15.29,0,24.72,7.92,24.72,20.76s-9.51,20.68-25.04,20.68h-31.53v14.02h-17.51V1437.71z
			 M1927.42,1451.02v14.82h28.76c6.73,0,9.9-2.38,9.9-7.29c0-5.07-3.17-7.53-9.9-7.53H1927.42z"/>
		<path d="M1983.28,1437.71h13.71v43.97h20.28v11.49h-33.99V1437.71z"/>
		<path d="M2017.67,1437.71h28.05v11.09h-15.61v10.54h13.47v11.09h-13.47v11.65h16v11.09h-28.44V1437.71z"/>
		<path d="M2071.46,1483.42h-12.83l-1.98,9.74h-11.88l13.55-55.46h14.26l13.55,55.46h-12.68L2071.46,1483.42z M2069.24,1472.57
			l-4.2-20.52l-4.2,20.52H2069.24z"/>
		<path d="M2094.6,1474.39c0.32,5.86,2.46,8.72,6.58,8.72c3.41,0,5.31-1.74,5.31-4.83c0-3.01-1.51-4.52-5.94-6.26l-4.67-1.82
			c-7.92-3.09-11.96-8.24-11.96-16.72c0-10.22,6.5-16.4,17.19-16.4c10.7,0,16.32,5.47,17.67,17.03l-11.88,1.58
			c-0.32-5.47-2.06-7.92-5.55-7.92c-3.25,0-5.15,1.82-5.15,4.99c0,3.17,1.66,4.52,7.13,6.73l4.28,1.74
			c8.32,3.41,11.57,7.84,11.57,16.24c0,10.14-6.81,16.32-17.99,16.32c-11.8,0-16.95-4.99-18.46-17.83L2094.6,1474.39z"/>
		<path d="M2142.58,1493.88c-13.47,0-21.15-7.05-21.15-20.52v-35.65h13.63v36.6c0,5.39,2.54,8.08,7.53,8.08
			c5.07,0,7.61-2.69,7.61-8.08v-36.6h13.63v35.65C2163.81,1486.83,2156.21,1493.88,2142.58,1493.88z"/>
		<path d="M2166.19,1437.71h38.74c13.31,0,20.84,7.05,20.84,18.14c0,9.03-5.86,15.53-15.85,17.03l18.38,20.28h-19.73l-16.32-18.54
			h-9.98v18.54h-16.08V1437.71z M2182.28,1449.83v12.68h19.81c4.99,0,7.61-2.22,7.61-6.34c0-4.12-2.61-6.34-7.61-6.34H2182.28z"/>
		<path d="M2227.6,1437.71h28.05v11.09h-15.61v10.54h13.47v11.09h-13.47v11.65h16v11.09h-28.44V1437.71z"/>
	</g>
	<g>
		<path d="M1717.99,1644.28h85.33v14.26H1737v9.9h60.06v14.26H1737v17.03h-19.01V1644.28z"/>
		<path d="M1805.3,1644.28h12.68v55.46h-12.68V1644.28z"/>
		<path d="M1820.28,1644.28h12.68l12.28,32.17v-32.17h11.49v55.46h-12.68l-12.28-32.17v32.17h-11.49V1644.28z"/>
		<path d="M1859.42,1644.28h14.82c14.34,0,21.55,9.27,21.55,27.97c0,18.38-7.21,27.49-21.55,27.49h-14.82V1644.28z M1884.61,1672.24
			c0-12.83-3.25-18.46-10.46-18.46h-3.88v36.52h3.88C1881.36,1690.31,1884.61,1684.76,1884.61,1672.24z"/>
		<path d="M1903.47,1644.28h49.36c15.29,0,24.72,7.92,24.72,20.76c0,12.83-9.51,20.68-25.04,20.68h-31.53v14.02h-17.51V1644.28z
			 M1920.98,1657.59v14.82h28.76c6.73,0,9.9-2.38,9.9-7.29c0-5.07-3.17-7.53-9.9-7.53H1920.98z"/>
		<path d="M1976.84,1644.28h13.71v43.97h20.28v11.49h-33.99V1644.28z"/>
		<path d="M2011.22,1644.28h28.05v11.09h-15.61v10.54h13.47V1677h-13.47v11.65h16v11.09h-28.44V1644.28z"/>
		<path d="M2066.61,1689.99h-12.84l-1.98,9.74h-11.89l13.55-55.46h14.26l13.55,55.46h-12.68L2066.61,1689.99z M2064.39,1679.14
			l-4.2-20.52l-4.2,20.52H2064.39z"/>
		<path d="M2089.74,1680.96c0.32,5.86,2.46,8.72,6.58,8.72c3.41,0,5.31-1.74,5.31-4.83c0-3.01-1.5-4.52-5.94-6.26l-4.67-1.82
			c-7.92-3.09-11.96-8.24-11.96-16.72c0-10.22,6.5-16.4,17.19-16.4c10.7,0,16.32,5.47,17.67,17.03l-11.88,1.58
			c-0.32-5.47-2.06-7.92-5.55-7.92c-3.25,0-5.15,1.82-5.15,4.99c0,3.17,1.66,4.52,7.13,6.73l4.28,1.74
			c8.32,3.41,11.57,7.84,11.57,16.24c0,10.14-6.81,16.32-17.99,16.32c-11.81,0-16.96-4.99-18.46-17.83L2089.74,1680.96z"/>
		<path d="M2136.41,1700.45c-13.47,0-21.15-7.05-21.15-20.52v-35.65h13.63v36.6c0,5.39,2.54,8.08,7.53,8.08
			c5.07,0,7.61-2.69,7.61-8.08v-36.6h13.63v35.65C2157.64,1693.4,2150.04,1700.45,2136.41,1700.45z"/>
		<path d="M2160.02,1644.28h38.74c13.31,0,20.84,7.05,20.84,18.14c0,9.03-5.86,15.53-15.85,17.03l18.38,20.28h-19.73l-16.32-18.54
			h-9.98v18.54h-16.08V1644.28z M2176.11,1656.4v12.68h19.81c4.99,0,7.61-2.22,7.61-6.34c0-4.12-2.62-6.34-7.61-6.34H2176.11z"/>
		<path d="M2221.43,1644.28h28.05v11.09h-15.61v10.54h13.47V1677h-13.47v11.65h16v11.09h-28.44V1644.28z"/>
	</g>
	<polygon points="2492.89,859.94 2492.89,845.68 2426.57,845.68 2419.36,845.68 2407.56,845.68 2407.56,901.14 2426.57,901.14 
		2426.57,884.1 2486.63,884.1 2486.63,869.84 2426.57,869.84 2426.57,859.94 	"/>
	<path d="M2494.87,845.68h12.68v55.46h-12.68V845.68z"/>
	<polygon points="2534.8,845.68 2534.8,877.86 2522.52,845.68 2521.33,845.68 2517.69,845.68 2509.84,845.68 2509.84,901.14 
		2521.33,901.14 2521.33,868.95 2533.61,901.14 2534.8,901.14 2537.18,901.14 2546.29,901.14 2546.29,845.68 	"/>
	<path d="M2584.44,863.54c-0.55-2.98-1.41-5.59-2.57-7.8c-1.16-2.22-2.6-4.08-4.32-5.59c-1.72-1.51-3.72-2.63-6.02-3.37
		c-2.3-0.74-4.87-1.11-7.72-1.11h-4.04h-1.43h-9.35v55.46h9.43h1.35h4.04c2.85,0,5.43-0.37,7.72-1.11c2.3-0.74,4.3-1.83,6.02-3.29
		c1.72-1.45,3.16-3.27,4.32-5.47c1.16-2.19,2.02-4.77,2.57-7.72c0.55-2.96,0.83-6.26,0.83-9.9
		C2585.27,869.9,2585,866.53,2584.44,863.54z M2573.78,880.3c-0.26,1.96-0.67,3.66-1.23,5.11c-0.55,1.45-1.24,2.64-2.06,3.57
		c-0.82,0.92-1.8,1.61-2.93,2.06c-1.14,0.45-2.42,0.67-3.84,0.67h-3.96v-36.53h3.96c1.43,0,2.71,0.23,3.84,0.67
		c1.14,0.45,2.11,1.15,2.93,2.1c0.82,0.95,1.51,2.15,2.06,3.6c0.55,1.45,0.96,3.2,1.23,5.23c0.26,2.03,0.4,4.32,0.4,6.85
		C2574.18,876.13,2574.05,878.35,2573.78,880.3z"/>
	<path d="M2665.38,857.8c-1.11-2.59-2.73-4.78-4.87-6.58c-2.14-1.8-4.73-3.17-7.77-4.12c-3.04-0.95-6.46-1.43-10.26-1.43h-31.85
		h-2.61h-14.97v55.46h17.59v-14.02h31.46c5.23,0,9.71-0.83,13.43-2.5c3.72-1.66,6.58-4.04,8.56-7.13c1.98-3.09,2.97-6.77,2.97-11.05
		C2667.04,863.27,2666.49,860.39,2665.38,857.8z M2648.18,870.6c-0.69,1.03-1.77,1.81-3.25,2.34c-1.48,0.53-3.35,0.79-5.63,0.79
		h-28.68v-14.74h28.68c2.27,0,4.15,0.28,5.63,0.83c1.48,0.55,2.56,1.39,3.25,2.5c0.69,1.11,1.03,2.51,1.03,4.2
		C2649.21,868.2,2648.87,869.56,2648.18,870.6z"/>
	<polygon points="2679.95,889.65 2679.95,845.68 2666.41,845.68 2666.41,901.14 2669.81,901.14 2679.95,901.14 2699.76,901.14 
		2699.76,889.65 	"/>
	<polygon points="2712.6,890.05 2712.6,878.4 2726.07,878.4 2726.07,867.31 2712.6,867.31 2712.6,856.77 2728.21,856.77 
		2728.21,845.68 2712.6,845.68 2708.95,845.68 2700.16,845.68 2700.16,901.14 2708.95,901.14 2712.6,901.14 2728.6,901.14 
		2728.6,890.05 	"/>
	<path d="M2757.52,901.14h12.68l-13.55-55.46h-14.26l-13.55,55.46h11.88l1.99-9.75h12.82L2757.52,901.14z M2744.93,880.54
		l4.19-20.52l4.19,20.52H2744.93z"/>
	<path d="M2778.68,882.36c0.1,1.96,0.41,3.58,0.91,4.87c0.5,1.29,1.23,2.26,2.18,2.89c0.95,0.63,2.11,0.95,3.49,0.95
		c0.85,0,1.6-0.1,2.26-0.32c0.66-0.21,1.21-0.53,1.66-0.95c0.45-0.42,0.79-0.92,1.03-1.51c0.24-0.58,0.36-1.27,0.36-2.06
		c0-1-0.19-1.86-0.56-2.57c-0.37-0.71-0.99-1.36-1.86-1.94c-0.87-0.58-2.05-1.16-3.52-1.74l-4.68-1.82
		c-2.01-0.79-3.75-1.7-5.23-2.73c-1.48-1.03-2.72-2.23-3.72-3.6c-1-1.37-1.76-2.92-2.26-4.63c-0.5-1.72-0.75-3.63-0.75-5.74
		c0-2.54,0.4-4.82,1.19-6.85c0.79-2.03,1.93-3.76,3.41-5.19c1.48-1.43,3.27-2.51,5.39-3.25c2.11-0.74,4.52-1.11,7.21-1.11
		c3.59,0,6.62,0.62,9.07,1.86c2.46,1.24,4.4,3.12,5.82,5.63c1.43,2.51,2.35,5.69,2.77,9.55l-11.88,1.59
		c-0.16-2.75-0.69-4.75-1.58-6.02c-0.9-1.27-2.22-1.9-3.96-1.9c-0.79,0-1.51,0.11-2.14,0.32c-0.63,0.21-1.18,0.54-1.62,0.99
		c-0.45,0.45-0.79,0.98-1.03,1.58c-0.24,0.61-0.36,1.31-0.36,2.1c0,1.06,0.21,1.94,0.63,2.65c0.42,0.71,1.16,1.39,2.22,2.02
		c1.06,0.63,2.48,1.32,4.28,2.06l4.28,1.74c2.8,1.16,5.04,2.46,6.74,3.88c1.69,1.43,2.92,3.14,3.68,5.15
		c0.77,2.01,1.15,4.41,1.15,7.21c0,2.54-0.41,4.81-1.23,6.81c-0.82,2.01-2.01,3.72-3.56,5.15c-1.56,1.43-3.45,2.51-5.67,3.25
		c-2.22,0.74-4.73,1.11-7.53,1.11c-2.96,0-5.52-0.33-7.68-0.99c-2.17-0.66-3.98-1.7-5.43-3.13c-1.45-1.43-2.61-3.26-3.49-5.51
		c-0.87-2.24-1.49-4.98-1.86-8.2L2778.68,882.36z"/>
	<path d="M2844.4,890.4c-0.93,2.56-2.27,4.67-4.04,6.34c-1.77,1.66-3.95,2.92-6.54,3.76c-2.59,0.84-5.55,1.27-8.87,1.27
		s-6.29-0.42-8.87-1.27c-2.59-0.84-4.77-2.1-6.54-3.76c-1.77-1.66-3.12-3.78-4.04-6.34c-0.92-2.56-1.39-5.48-1.39-8.76v-35.97h13.55
		v36.84c0,1.8,0.28,3.26,0.83,4.4c0.55,1.14,1.36,2.01,2.42,2.61c1.06,0.61,2.4,0.91,4.04,0.91c1.27,0,2.34-0.16,3.21-0.48
		c0.87-0.32,1.61-0.82,2.22-1.51c0.61-0.69,1.07-1.52,1.39-2.5c0.32-0.98,0.47-2.13,0.47-3.45v-36.84h13.55v35.97
		C2845.79,884.92,2845.32,887.84,2844.4,890.4z"/>
	<path d="M2890.47,901.14h19.73l-18.34-20.24c2.31-0.35,4.39-0.95,6.25-1.83c3.09-1.45,5.47-3.49,7.13-6.1
		c1.66-2.61,2.5-5.66,2.5-9.15c0-2.8-0.46-5.31-1.39-7.53c-0.92-2.22-2.27-4.12-4.04-5.71c-1.77-1.58-3.95-2.8-6.54-3.64
		c-2.59-0.84-5.52-1.27-8.8-1.27h-22.74h-3.65h-12.44v55.46h16.08V882.6h9.95L2890.47,901.14z M2864.25,857.8h19.73
		c1.32,0,2.44,0.15,3.37,0.44c0.92,0.29,1.7,0.69,2.34,1.19c0.63,0.5,1.12,1.15,1.46,1.94c0.34,0.79,0.52,1.72,0.52,2.77
		c0,1.06-0.17,1.97-0.52,2.73c-0.34,0.77-0.82,1.43-1.43,1.98c-0.61,0.55-1.39,0.96-2.34,1.23c-0.95,0.26-2.09,0.4-3.41,0.4h-19.73
		V857.8z"/>
	<polygon points="2922.01,890.05 2922.01,878.4 2935.48,878.4 2935.48,867.31 2922.01,867.31 2922.01,856.77 2937.62,856.77 
		2937.62,845.68 2922.01,845.68 2918.36,845.68 2909.57,845.68 2909.57,901.14 2918.36,901.14 2922.01,901.14 2938.01,901.14 
		2938.01,890.05 	"/>
	<polygon points="2479.93,1021.05 2451.23,1021.05 2451.23,1004.02 2436.25,1004.02 2436.25,1021.05 2407.56,1021.05 
		2407.56,1031.12 2436.25,1031.12 2436.25,1048.37 2451.23,1048.37 2451.23,1031.12 2479.93,1031.12 	"/>
	<polygon points="2555.34,1021.05 2526.64,1021.05 2526.64,1004.02 2511.67,1004.02 2511.67,1021.05 2482.97,1021.05 
		2482.97,1031.12 2511.67,1031.12 2511.67,1048.37 2526.64,1048.37 2526.64,1031.12 2555.34,1031.12 	"/>
	<polygon points="2492.89,1072.92 2492.89,1058.66 2426.57,1058.66 2419.36,1058.66 2407.56,1058.66 2407.56,1114.12 
		2426.57,1114.12 2426.57,1097.09 2486.63,1097.09 2486.63,1082.83 2426.57,1082.83 2426.57,1072.92 	"/>
	<path d="M2495.62,1058.66h12.68v55.46h-12.68V1058.66z"/>
	<polygon points="2536.3,1058.66 2536.3,1090.85 2524.02,1058.66 2522.83,1058.66 2519.19,1058.66 2511.34,1058.66 2511.34,1114.12 
		2522.83,1114.12 2522.83,1081.94 2535.11,1114.12 2536.3,1114.12 2538.68,1114.12 2547.79,1114.12 2547.79,1058.66 	"/>
	<path d="M2586.69,1076.53c-0.55-2.98-1.41-5.59-2.57-7.8c-1.16-2.22-2.6-4.08-4.32-5.59c-1.72-1.51-3.72-2.63-6.02-3.37
		c-2.3-0.74-4.87-1.11-7.72-1.11h-4.04h-1.43h-9.35v55.46h9.43h1.35h4.04c2.85,0,5.43-0.37,7.72-1.11c2.3-0.74,4.3-1.83,6.02-3.29
		c1.72-1.45,3.16-3.27,4.32-5.47c1.16-2.19,2.02-4.77,2.57-7.72c0.55-2.96,0.83-6.26,0.83-9.9
		C2587.52,1082.88,2587.24,1079.51,2586.69,1076.53z M2576.03,1093.29c-0.26,1.96-0.67,3.66-1.23,5.11
		c-0.55,1.45-1.24,2.64-2.06,3.57c-0.82,0.92-1.8,1.61-2.93,2.06c-1.14,0.45-2.42,0.67-3.84,0.67h-3.96v-36.53h3.96
		c1.43,0,2.71,0.23,3.84,0.67c1.14,0.45,2.11,1.15,2.93,2.1c0.82,0.95,1.51,2.15,2.06,3.6c0.55,1.45,0.96,3.2,1.23,5.23
		c0.26,2.03,0.4,4.32,0.4,6.85C2576.43,1089.11,2576.29,1091.33,2576.03,1093.29z"/>
	<path d="M2668.37,1070.78c-1.11-2.59-2.73-4.78-4.87-6.58c-2.14-1.8-4.73-3.17-7.77-4.12c-3.04-0.95-6.46-1.43-10.26-1.43h-31.85
		h-2.61h-14.97v55.46h17.59v-14.02h31.46c5.23,0,9.71-0.83,13.43-2.5c3.72-1.66,6.58-4.04,8.56-7.13c1.98-3.09,2.97-6.77,2.97-11.05
		C2670.04,1076.25,2669.48,1073.37,2668.37,1070.78z M2651.18,1083.58c-0.69,1.03-1.77,1.81-3.25,2.34
		c-1.48,0.53-3.35,0.79-5.63,0.79h-28.68v-14.74h28.68c2.27,0,4.15,0.28,5.63,0.83c1.48,0.55,2.56,1.39,3.25,2.5
		c0.69,1.11,1.03,2.51,1.03,4.2C2652.21,1081.19,2651.86,1082.55,2651.18,1083.58z"/>
	<polygon points="2683.7,1102.64 2683.7,1058.66 2670.15,1058.66 2670.15,1114.12 2673.56,1114.12 2683.7,1114.12 2703.51,1114.12 
		2703.51,1102.64 	"/>
	<polygon points="2717.34,1103.03 2717.34,1091.38 2730.81,1091.38 2730.81,1080.29 2717.34,1080.29 2717.34,1069.75 
		2732.95,1069.75 2732.95,1058.66 2717.34,1058.66 2713.69,1058.66 2704.9,1058.66 2704.9,1114.12 2713.69,1114.12 2717.34,1114.12 
		2733.34,1114.12 2733.34,1103.03 	"/>
	<path d="M2763.01,1114.12h12.68l-13.55-55.46h-14.26l-13.55,55.46h11.89l1.99-9.75h12.82L2763.01,1114.12z M2750.42,1093.52
		l4.19-20.52l4.19,20.52H2750.42z"/>
	<path d="M2784.92,1095.35c0.1,1.96,0.41,3.58,0.91,4.87c0.5,1.29,1.23,2.26,2.18,2.89c0.95,0.63,2.11,0.95,3.49,0.95
		c0.85,0,1.6-0.1,2.26-0.32c0.66-0.21,1.21-0.53,1.66-0.95c0.45-0.42,0.79-0.92,1.03-1.51c0.24-0.58,0.36-1.27,0.36-2.06
		c0-1-0.19-1.86-0.56-2.57c-0.37-0.71-0.99-1.36-1.86-1.94c-0.87-0.58-2.05-1.16-3.52-1.74l-4.68-1.82
		c-2.01-0.79-3.75-1.7-5.23-2.73c-1.48-1.03-2.72-2.23-3.72-3.6c-1-1.37-1.76-2.92-2.26-4.63c-0.5-1.72-0.75-3.63-0.75-5.74
		c0-2.54,0.4-4.82,1.19-6.85c0.79-2.03,1.93-3.76,3.41-5.19c1.48-1.43,3.27-2.51,5.39-3.25c2.11-0.74,4.52-1.11,7.21-1.11
		c3.59,0,6.62,0.62,9.07,1.86c2.46,1.24,4.4,3.12,5.82,5.63c1.43,2.51,2.35,5.69,2.77,9.55l-11.89,1.59
		c-0.16-2.75-0.69-4.75-1.58-6.02c-0.9-1.27-2.22-1.9-3.96-1.9c-0.79,0-1.51,0.11-2.14,0.32c-0.63,0.21-1.18,0.54-1.62,0.99
		c-0.45,0.45-0.79,0.98-1.03,1.58c-0.24,0.61-0.36,1.31-0.36,2.1c0,1.06,0.21,1.94,0.63,2.65c0.42,0.71,1.16,1.39,2.22,2.02
		c1.06,0.63,2.48,1.32,4.28,2.06l4.28,1.74c2.8,1.16,5.04,2.46,6.74,3.88c1.69,1.43,2.92,3.14,3.68,5.15
		c0.77,2.01,1.15,4.41,1.15,7.21c0,2.54-0.41,4.81-1.23,6.81c-0.82,2.01-2.01,3.72-3.56,5.15c-1.56,1.43-3.45,2.51-5.67,3.25
		c-2.22,0.74-4.73,1.11-7.53,1.11c-2.96,0-5.52-0.33-7.68-0.99c-2.17-0.66-3.98-1.7-5.43-3.13c-1.45-1.43-2.61-3.26-3.49-5.51
		c-0.87-2.24-1.49-4.98-1.86-8.2L2784.92,1095.35z"/>
	<path d="M2851.39,1103.39c-0.93,2.56-2.27,4.67-4.04,6.34c-1.77,1.66-3.95,2.92-6.54,3.76c-2.59,0.84-5.55,1.27-8.87,1.27
		s-6.29-0.42-8.87-1.27c-2.59-0.84-4.77-2.1-6.54-3.76c-1.77-1.66-3.12-3.78-4.04-6.34c-0.92-2.56-1.39-5.48-1.39-8.76v-35.97h13.55
		v36.84c0,1.8,0.28,3.26,0.83,4.4c0.55,1.14,1.36,2.01,2.42,2.61c1.06,0.61,2.4,0.91,4.04,0.91c1.27,0,2.34-0.16,3.21-0.48
		c0.87-0.32,1.61-0.82,2.22-1.51c0.61-0.69,1.07-1.52,1.39-2.5s0.47-2.13,0.47-3.45v-36.84h13.55v35.97
		C2852.77,1097.91,2852.31,1100.83,2851.39,1103.39z"/>
	<path d="M2898.21,1114.12h19.73l-18.33-20.24c2.31-0.35,4.39-0.95,6.25-1.83c3.09-1.45,5.47-3.49,7.13-6.1
		c1.66-2.61,2.5-5.66,2.5-9.15c0-2.8-0.46-5.31-1.39-7.53c-0.92-2.22-2.27-4.12-4.04-5.71s-3.95-2.8-6.54-3.64
		c-2.59-0.84-5.52-1.27-8.79-1.27h-22.74h-3.65h-12.44v55.46h16.08v-18.54h9.95L2898.21,1114.12z M2871.98,1070.78h19.73
		c1.32,0,2.44,0.15,3.37,0.44c0.92,0.29,1.7,0.69,2.34,1.19c0.63,0.5,1.12,1.15,1.46,1.94c0.34,0.79,0.52,1.72,0.52,2.77
		s-0.17,1.97-0.52,2.73c-0.34,0.77-0.82,1.43-1.43,1.98c-0.61,0.55-1.39,0.96-2.34,1.23c-0.95,0.26-2.09,0.4-3.41,0.4h-19.73
		V1070.78z"/>
	<polygon points="2930.49,1103.03 2930.49,1091.38 2943.96,1091.38 2943.96,1080.29 2930.49,1080.29 2930.49,1069.75 
		2946.1,1069.75 2946.1,1058.66 2930.49,1058.66 2926.85,1058.66 2918.05,1058.66 2918.05,1114.12 2926.85,1114.12 2930.49,1114.12 
		2946.5,1114.12 2946.5,1103.03 	"/>
</g>
</svg>
