<?xml version="1.0" encoding="utf-8"?>
<!-- Generator: Adobe Illustrator 28.1.0, SVG Export Plug-In . SVG Version: 6.00 Build 0)  -->
<svg version="1.1" xmlns="http://www.w3.org/2000/svg" xmlns:xlink="http://www.w3.org/1999/xlink" x="0px" y="0px"
	 viewBox="0 0 1440 1024" style="enable-background:new 0 0 1440 1024;" xml:space="preserve">
<style type="text/css">
	.st0{fill:none;stroke:#000000;stroke-miterlimit:10;}
</style>
<g id="Guide">
</g>
<g id="_x2B__Find_Pleasure">
</g>
<g id="_x2B__Go_Further">
</g>
<g id="_x30_3_Stay_Safe">
</g>
<g id="_x30_2_Step_Forward">
</g>
<g id="_x30_1_Get_Rid_Of">
</g>
<g id="Layer_7">
	<g>
		<path class="st0" d="M98.76,829.82c-7.2-1.11-13.57-2.74-19.1-4.92c-5.53-2.17-10.18-4.83-13.96-7.97
			c-3.78-3.14-6.63-6.74-8.56-10.81c-1.93-4.07-2.89-8.59-2.89-13.59c0-4.99,0.96-9.54,2.89-13.64c1.93-4.1,4.78-7.72,8.56-10.86
			c3.78-3.14,8.43-5.78,13.96-7.92c5.53-2.14,11.89-3.76,19.1-4.87c7.2-1.11,15.19-1.66,23.96-1.66s16.76,0.55,23.96,1.66
			c7.2,1.11,13.57,2.73,19.1,4.87c5.53,2.14,10.18,4.78,13.96,7.92c3.78,3.14,6.63,6.76,8.56,10.86c1.93,4.1,2.89,8.65,2.89,13.64
			c0,4.99-0.96,9.52-2.89,13.59c-1.93,4.07-4.78,7.67-8.56,10.81c-3.78,3.14-8.44,5.8-13.96,7.97c-5.53,2.18-11.89,3.82-19.1,4.92
			c-7.2,1.1-15.19,1.66-23.96,1.66S105.96,830.93,98.76,829.82z M138.24,811.47c4.56-0.5,8.52-1.26,11.88-2.3
			c3.35-1.03,6.13-2.34,8.34-3.9c2.21-1.57,3.85-3.4,4.92-5.51c1.07-2.1,1.6-4.51,1.6-7.22c0-2.71-0.53-5.12-1.6-7.22
			c-1.07-2.1-2.71-3.94-4.92-5.51c-2.21-1.57-4.99-2.87-8.34-3.9c-3.35-1.03-7.31-1.8-11.88-2.3c-4.57-0.5-9.74-0.75-15.51-0.75
			s-10.95,0.25-15.51,0.75c-4.57,0.5-8.52,1.27-11.88,2.3c-3.35,1.03-6.13,2.34-8.34,3.9c-2.21,1.57-3.85,3.41-4.92,5.51
			c-1.07,2.1-1.6,4.51-1.6,7.22c0,2.71,0.54,5.12,1.6,7.22c1.07,2.1,2.71,3.94,4.92,5.51c2.21,1.57,4.99,2.87,8.34,3.9
			c3.35,1.04,7.31,1.8,11.88,2.3c4.56,0.5,9.74,0.75,15.51,0.75S133.67,811.97,138.24,811.47z"/>
		<path class="st0" d="M318.58,800.78c-1.11-1.93-2.78-3.58-5.03-4.97c-2.25-1.39-5.12-2.51-8.61-3.37
			c-1.71-0.42-3.57-0.78-5.58-1.08c2.25-0.6,4.3-1.22,6.11-1.87c3.28-1.18,5.9-2.48,7.86-3.9c1.96-1.43,3.39-3.01,4.28-4.76
			c0.89-1.75,1.34-3.69,1.34-5.83c0-3.64-1.3-6.79-3.9-9.47c-2.6-2.67-6.53-4.88-11.77-6.63c-5.24-1.75-11.84-3.07-19.79-3.96
			c-7.95-0.89-17.28-1.34-27.98-1.34c-9.27,0-17.53,0.47-24.77,1.39c-7.24,0.93-13.45,2.34-18.62,4.23
			c-5.17,1.89-9.34,4.23-12.52,7.01c-3.17,2.78-5.37,6.03-6.58,9.74l25.68,5.35c0.5-1.85,1.6-3.44,3.32-4.76
			c1.71-1.32,4.12-2.41,7.22-3.26c3.1-0.86,6.88-1.5,11.34-1.93c4.46-0.43,9.68-0.64,15.67-0.64c5.85,0,10.93,0.14,15.25,0.43
			c4.31,0.29,7.88,0.71,10.7,1.28c2.82,0.57,4.9,1.3,6.26,2.19c1.35,0.89,2.03,1.98,2.03,3.26c0,1-0.25,1.87-0.75,2.62
			c-0.5,0.75-1.36,1.36-2.57,1.82c-1.21,0.46-2.89,0.82-5.03,1.07c-2.14,0.25-4.81,0.37-8.02,0.37h-44.4v17.12h44.4
			c4.07,0,7.26,0.18,9.57,0.54c2.32,0.36,3.98,0.93,4.98,1.71c1,0.79,1.5,1.82,1.5,3.1c0,1.43-0.68,2.66-2.03,3.69
			c-1.36,1.04-3.42,1.87-6.21,2.51c-2.78,0.64-6.3,1.12-10.54,1.44c-4.24,0.32-9.29,0.48-15.14,0.48c-6.06,0-11.34-0.21-15.83-0.64
			c-4.49-0.43-8.26-1.09-11.29-1.98c-3.03-0.89-5.39-2.05-7.06-3.48c-1.68-1.43-2.73-3.1-3.16-5.03l-27.6,5.24
			c1.28,3.85,3.46,7.21,6.53,10.06c3.07,2.85,7.19,5.24,12.36,7.17c5.17,1.93,11.5,3.37,18.99,4.33c7.49,0.96,16.26,1.44,26.32,1.44
			c11.13,0,20.77-0.52,28.94-1.55c8.17-1.03,14.89-2.55,20.17-4.55c5.28-2,9.2-4.49,11.77-7.49c2.57-3,3.85-6.45,3.85-10.38
			C320.24,804.95,319.69,802.7,318.58,800.78z"/>
		<g>
			<path class="st0" d="M99.07,481.52c-7.18-1.1-13.53-2.74-19.04-4.91c-5.51-2.17-10.15-4.82-13.92-7.95
				c-3.77-3.13-6.61-6.72-8.53-10.77c-1.92-4.05-2.88-8.57-2.88-13.55c0-4.98,0.96-9.51,2.88-13.6c1.92-4.09,4.76-7.7,8.53-10.83
				c3.77-3.13,8.41-5.76,13.92-7.89c5.51-2.13,11.86-3.75,19.04-4.85c7.18-1.1,15.14-1.65,23.89-1.65s16.71,0.55,23.89,1.65
				c7.18,1.1,13.53,2.72,19.04,4.85c5.51,2.13,10.15,4.76,13.92,7.89c3.77,3.13,6.61,6.74,8.53,10.83c1.92,4.09,2.88,8.62,2.88,13.6
				c0,4.98-0.96,9.49-2.88,13.55c-1.92,4.05-4.76,7.64-8.53,10.77c-3.77,3.13-8.41,5.78-13.92,7.95c-5.51,2.17-11.86,3.8-19.04,4.91
				c-7.18,1.1-15.14,1.65-23.89,1.65S106.25,482.62,99.07,481.52z M138.43,463.23c4.55-0.5,8.5-1.26,11.84-2.29
				c3.34-1.03,6.11-2.33,8.32-3.89c2.2-1.56,3.84-3.39,4.91-5.49c1.07-2.1,1.6-4.5,1.6-7.2c0-2.7-0.53-5.1-1.6-7.2
				c-1.07-2.1-2.7-3.93-4.91-5.49c-2.2-1.56-4.98-2.86-8.32-3.89c-3.34-1.03-7.29-1.79-11.84-2.29c-4.55-0.5-9.71-0.75-15.47-0.75
				c-5.76,0-10.91,0.25-15.46,0.75c-4.55,0.5-8.5,1.26-11.84,2.29c-3.34,1.03-6.12,2.33-8.32,3.89c-2.2,1.56-3.84,3.4-4.91,5.49
				c-1.07,2.1-1.6,4.5-1.6,7.2c0,2.7,0.53,5.1,1.6,7.2c1.07,2.1,2.7,3.93,4.91,5.49c2.2,1.57,4.98,2.86,8.32,3.89
				c3.34,1.03,7.29,1.8,11.84,2.29c4.55,0.5,9.71,0.75,15.46,0.75C128.72,463.97,133.88,463.73,138.43,463.23z"/>
			<path class="st0" d="M251.23,462.48l12.93-3.2c8.67-2.13,15.98-4.14,21.92-6.03c5.94-1.88,10.79-3.73,14.56-5.55
				c3.77-1.81,6.68-3.66,8.75-5.55c2.06-1.88,3.48-3.89,4.27-6.03c0.78-2.13,1.17-4.48,1.17-7.04c0-5.19-2.13-9.53-6.4-13.01
				c-4.27-3.48-10.68-6.11-19.25-7.89c-8.57-1.78-19.25-2.67-32.05-2.67c-13.22,0-24.23,0.85-33.01,2.56
				c-8.78,1.71-15.64,4.37-20.58,8c-4.94,3.63-8.37,8.32-10.29,14.08l26.13,4.9c0.71-2.63,2.28-4.78,4.69-6.45
				c2.42-1.67,6.26-2.9,11.52-3.68c5.26-0.78,12.48-1.17,21.65-1.17c7.39,0,13.29,0.25,17.7,0.75c4.41,0.5,7.55,1.32,9.44,2.45
				c1.88,1.14,2.83,2.63,2.83,4.48c0,0.92-0.25,1.74-0.75,2.45c-0.5,0.71-1.42,1.44-2.77,2.19c-1.35,0.75-3.24,1.55-5.65,2.4
				c-2.42,0.85-5.53,1.87-9.33,3.04c-3.8,1.17-8.44,2.54-13.92,4.11l-59.62,17.28v18.77h120.09v-19.2H251.23z"/>
		</g>
		<g>
			<path class="st0" d="M165.76,152.97c5.5-2.16,10.13-4.81,13.89-7.93c3.76-3.12,6.6-6.71,8.52-10.75
				c1.92-4.04,2.87-8.55,2.87-13.52c0-4.97-0.96-9.49-2.87-13.57c-1.92-4.08-4.76-7.68-8.52-10.8c-3.76-3.12-8.39-5.75-13.89-7.88
				c-5.5-2.13-11.83-3.74-19-4.84c-7.17-1.1-15.11-1.65-23.84-1.65s-16.68,0.55-23.84,1.65c-7.17,1.1-13.5,2.71-19,4.84
				c-5.5,2.13-10.13,4.75-13.89,7.88c-3.76,3.12-6.6,6.72-8.52,10.8c-1.92,4.08-2.87,8.6-2.87,13.57c0,4.97,0.96,9.47,2.87,13.52
				c1.92,4.05,4.75,7.63,8.52,10.75c3.76,3.12,8.39,5.77,13.89,7.93c5.5,2.17,11.83,3.8,19,4.9c7.17,1.1,15.11,1.65,23.84,1.65
				s16.67-0.55,23.84-1.65C153.93,156.77,160.26,155.13,165.76,152.97z M107.49,139.61c-4.54-0.5-8.48-1.26-11.81-2.29
				c-3.34-1.03-6.1-2.32-8.3-3.89c-2.2-1.56-3.83-3.39-4.9-5.48c-1.06-2.09-1.6-4.49-1.6-7.19c0-2.7,0.53-5.09,1.6-7.18
				c1.06-2.09,2.7-3.92,4.9-5.48c2.2-1.56,4.97-2.86,8.3-3.88c3.33-1.03,7.27-1.79,11.81-2.29c4.54-0.5,9.69-0.75,15.43-0.75
				c5.75,0,10.89,0.25,15.43,0.75c4.54,0.5,8.48,1.26,11.81,2.29c3.33,1.03,6.1,2.32,8.3,3.88c2.2,1.56,3.83,3.39,4.9,5.48
				c1.06,2.09,1.6,4.49,1.6,7.18c0,2.7-0.53,5.09-1.6,7.19c-1.06,2.09-2.7,3.92-4.9,5.48c-2.2,1.56-4.97,2.86-8.3,3.89
				c-3.34,1.03-7.27,1.79-11.81,2.29c-4.54,0.5-9.69,0.74-15.43,0.74C117.17,140.36,112.03,140.11,107.49,139.61z"/>
			<polygon class="st0" points="198.68,110.13 244.88,103.74 244.88,138.87 194.43,138.87 194.43,158.02 244.88,158.02 
				270.42,158.02 313.1,158.02 313.1,138.87 270.42,138.87 270.42,83.52 249.13,83.52 198.68,90.44 			"/>
		</g>
		<g>
			<path class="st0" d="M100.72,597.55c2.03,3.56,5.6,6.55,10.68,8.97c5.09,2.42,12.18,4.23,21.27,5.44
				c9.09,1.21,20.51,1.81,34.25,1.81c13.36,0,24.52-0.22,33.48-0.67c8.97-0.44,16.06-1.14,21.27-2.1c5.21-0.95,8.97-2.13,11.26-3.53
				c2.29-1.4,3.43-3.12,3.43-5.15c0-2.29-0.76-4.07-2.29-5.34c-1.53-1.27-4.58-2.19-9.16-2.77c-4.58-0.57-11.45-0.98-20.61-1.24
				l-82.23-2.48c-11.83-0.38-21.97-1.53-30.43-3.43c-8.46-1.91-15.39-4.51-20.8-7.82c-5.41-3.31-9.38-7.28-11.92-11.92
				c-2.55-4.64-3.82-9.83-3.82-15.55c0-7.5,2.19-14.09,6.58-19.75c4.39-5.66,11.13-10.4,20.22-14.21c9.09-3.82,20.7-6.68,34.82-8.58
				c14.12-1.91,30.84-2.86,50.18-2.86c21.75,0,40.38,1.4,55.9,4.2c15.52,2.8,27.98,7.03,37.4,12.69
				c9.41,5.66,15.77,12.69,19.08,21.08l-49.42,7.82c-2.55-4.83-8.71-8.42-18.51-10.78c-9.8-2.35-24.61-3.53-44.46-3.53
				c-12.72,0-23.31,0.22-31.77,0.67c-8.46,0.45-15.11,1.11-19.94,2c-4.83,0.89-8.27,2.04-10.3,3.43c-2.04,1.4-3.05,3.05-3.05,4.96
				c0,2.04,0.86,3.69,2.58,4.96c1.72,1.27,4.67,2.19,8.87,2.77c4.2,0.57,10.17,0.99,17.93,1.24l86.24,2.48
				c15.14,0.51,27.54,2.35,37.2,5.53c9.67,3.18,16.82,7.51,21.46,12.97c4.64,5.47,6.96,11.96,6.96,19.46
				c0,7.12-2.04,13.58-6.11,19.37c-4.07,5.79-10.65,10.75-19.75,14.88c-9.09,4.13-21.05,7.28-35.87,9.44
				c-14.82,2.16-32.98,3.24-54.47,3.24c-16.54,0-31.39-0.83-44.55-2.48c-13.16-1.65-24.58-4.16-34.25-7.54
				c-9.67-3.37-17.55-7.54-23.66-12.5c-6.11-4.96-10.49-10.75-13.17-17.36L100.72,597.55z"/>
			<path class="st0" d="M273.96,509.03h83.76v26.71h-83.76V509.03z M300.48,522.19h30.53v120.39h-30.53V522.19z"/>
			<path class="st0" d="M361.54,509.03h29.96v133.56h-29.96V509.03z M382.72,509.03h46.36v26.71h-46.36V509.03z M382.72,561.11
				h41.21v26.71h-41.21V561.11z M382.72,615.87h47.32v26.71h-47.32V615.87z"/>
			<path class="st0" d="M437.66,509.03h30.53v133.56h-30.53V509.03z M465.71,603.28v-25.95h8.78c4.07,0,7.38-0.7,9.92-2.1
				c2.54-1.4,4.42-3.62,5.63-6.68c1.21-3.05,1.81-6.99,1.81-11.83c0-5.22-0.61-9.41-1.81-12.59c-1.21-3.18-3.09-5.5-5.63-6.96
				c-2.55-1.46-5.85-2.19-9.92-2.19h-8.78v-25.95h12.4c7.25,0,13.61,1.02,19.08,3.05c5.47,2.04,10.08,5.09,13.83,9.16
				c3.75,4.07,6.58,9.06,8.49,14.98c1.91,5.91,2.86,12.75,2.86,20.51c0,10.05-1.78,18.54-5.34,25.47
				c-3.56,6.93-8.87,12.18-15.93,15.74c-7.06,3.56-15.68,5.34-25.85,5.34H465.71z"/>
			<path class="st0" d="M547.56,509.03h45.79v133.56h-45.79V509.03z M575.99,509.03h177.06v34.34H575.99V509.03z M577.32,567.22
				h160.65v34.34H577.32V567.22z"/>
			<path class="st0" d="M778.04,641.44c-4.96-1.78-9.32-4.45-13.07-8.01c-3.75-3.56-6.9-8.04-9.44-13.45
				c-2.55-5.4-4.46-11.8-5.72-19.17c-1.27-7.38-1.91-15.71-1.91-24.99c0-9.28,0.64-17.62,1.91-24.99
				c1.27-7.38,3.18-13.77,5.72-19.17c2.54-5.41,5.69-9.89,9.44-13.45c3.75-3.56,8.11-6.23,13.07-8.01
				c4.96-1.78,10.49-2.67,16.6-2.67c6.1,0,11.64,0.89,16.6,2.67c4.96,1.78,9.31,4.45,13.07,8.01c3.75,3.56,6.9,8.05,9.45,13.45
				c2.54,5.41,4.45,11.8,5.72,19.17c1.27,7.38,1.91,15.71,1.91,24.99c0,9.29-0.64,17.62-1.91,24.99
				c-1.27,7.38-3.18,13.77-5.72,19.17c-2.55,5.41-5.69,9.89-9.45,13.45c-3.75,3.56-8.11,6.23-13.07,8.01
				c-4.96,1.78-10.5,2.67-16.6,2.67C788.53,644.11,783,643.22,778.04,641.44z M800.36,615.87c1.65-1.02,3.08-2.58,4.29-4.67
				c1.21-2.1,2.19-4.77,2.96-8.01c0.76-3.24,1.34-7.15,1.72-11.73c0.38-4.58,0.57-9.79,0.57-15.65c0-5.98-0.19-11.22-0.57-15.74
				c-0.38-4.51-0.95-8.4-1.72-11.64c-0.76-3.24-1.75-5.91-2.96-8.01c-1.21-2.1-2.64-3.65-4.29-4.67c-1.66-1.02-3.56-1.53-5.72-1.53
				c-2.17,0-4.07,0.51-5.72,1.53c-1.66,1.02-3.09,2.58-4.29,4.67c-1.21,2.1-2.19,4.77-2.96,8.01c-0.76,3.24-1.33,7.12-1.72,11.64
				c-0.38,4.52-0.57,9.76-0.57,15.74c0,5.85,0.19,11.07,0.57,15.65c0.38,4.58,0.95,8.49,1.72,11.73c0.76,3.24,1.75,5.91,2.96,8.01
				c1.21,2.1,2.64,3.66,4.29,4.67c1.65,1.02,3.56,1.53,5.72,1.53C796.8,617.4,798.71,616.89,800.36,615.87z"/>
			<path class="st0" d="M846.72,509.03h30.53v133.56h-30.53V509.03z M887.36,595.26H870v-25.95h18.32c2.29,0,4.29-0.38,6.01-1.15
				c1.72-0.76,3.15-1.84,4.29-3.24c1.14-1.4,2-3.18,2.58-5.34c0.57-2.16,0.86-4.64,0.86-7.44c0-2.8-0.29-5.28-0.86-7.44
				c-0.57-2.16-1.43-3.94-2.58-5.34c-1.15-1.4-2.58-2.48-4.29-3.24c-1.72-0.76-3.72-1.14-6.01-1.14H870v-25.95h21.75
				c6.49,0,12.24,0.92,17.27,2.77c5.02,1.85,9.25,4.61,12.69,8.3c3.43,3.69,6.01,8.2,7.73,13.55c1.72,5.34,2.58,11.51,2.58,18.51
				c0,8.91-1.53,16.41-4.58,22.51c-3.05,6.1-7.6,10.75-13.64,13.93c-6.04,3.18-13.39,4.77-22.04,4.77L887.36,595.26z M907.97,581.34
				l28.81,61.25h-33.39l-22.9-52.85L907.97,581.34z"/>
			<path class="st0" d="M927.2,509.03h30.34l18.89,109.71h-8.59l20.99-109.71h23.28l-27.47,133.56h-31.67L927.2,509.03z
				 M993.22,509.03h23.85l20.99,109.71h-7.82l18.7-109.71h30.72l-27.86,133.56h-31.29L993.22,509.03z"/>
			<path class="st0" d="M1117.42,535.74h4.96l-29.76,106.84h-31.1l41.59-133.56h35.11l41.59,133.56h-33.01L1117.42,535.74z
				 M1089.18,591.45h63.53l-3.24,26.71h-57.05L1089.18,591.45z"/>
			<path class="st0" d="M1177.9,509.03h32.63v133.56h-32.63V509.03z M1229.6,595.26h-25.57v-26.71h23.28c2.41,0,4.58-0.35,6.49-1.05
				c1.91-0.7,3.5-1.72,4.77-3.05s2.22-3.05,2.86-5.15c0.64-2.1,0.95-4.48,0.95-7.16s-0.32-5.06-0.95-7.15
				c-0.64-2.1-1.62-3.82-2.96-5.15c-1.33-1.34-2.93-2.35-4.77-3.05c-1.85-0.7-3.98-1.05-6.39-1.05h-23.28v-26.71h28.05
				c6.61,0,12.56,0.92,17.84,2.77c5.28,1.85,9.76,4.64,13.45,8.39c3.69,3.75,6.49,8.3,8.4,13.64c1.91,5.34,2.86,11.45,2.86,18.32
				c0,8.65-1.69,16-5.06,22.04c-3.37,6.04-8.24,10.68-14.6,13.93c-6.36,3.24-13.99,4.87-22.9,4.87L1229.6,595.26z M1244.68,581.53
				l34.91,61.05h-36.25l-28.43-52.85L1244.68,581.53z"/>
			<path class="st0" d="M1283.79,509.03h30.53v133.56h-30.53V509.03z M1329.01,614.44c2.29-0.95,4.29-2.41,6.01-4.39
				c1.72-1.97,3.12-4.51,4.2-7.63c1.08-3.12,1.88-6.84,2.38-11.16c0.51-4.32,0.76-9.28,0.76-14.88c0-5.72-0.26-10.81-0.76-15.26
				c-0.51-4.45-1.3-8.27-2.38-11.45c-1.08-3.18-2.48-5.82-4.2-7.92c-1.72-2.1-3.72-3.62-6.01-4.58c-2.29-0.95-4.96-1.43-8.01-1.43
				h-10.3v-26.71h10.49c6.99,0,13.32,0.89,18.98,2.67c5.66,1.78,10.59,4.45,14.79,8.01c4.2,3.56,7.69,8.05,10.49,13.45
				c2.8,5.41,4.89,11.7,6.3,18.89c1.4,7.19,2.1,15.3,2.1,24.33c0,8.91-0.7,16.89-2.1,23.95c-1.4,7.06-3.5,13.23-6.3,18.51
				c-2.8,5.28-6.3,9.7-10.49,13.26c-4.2,3.56-9.1,6.2-14.69,7.92c-5.6,1.72-11.96,2.58-19.08,2.58h-10.11v-26.71h9.92
				C1324.05,615.87,1326.72,615.39,1329.01,614.44z"/>
		</g>
		<g>
			<path class="st0" d="M59.35,227.07c3.4-7.3,8.49-13.71,15.29-19.25c6.79-5.54,15.2-10.19,25.2-13.97
				c10-3.78,21.61-6.61,34.83-8.49c13.21-1.89,27.94-2.83,44.17-2.83c22.02,0,40.93,1.58,56.72,4.72
				c15.79,3.15,28.47,7.77,38.04,13.87c9.56,6.11,16.11,13.68,19.63,22.75l-48.89,9.63c-2.27-3.9-5.98-7.11-11.14-9.63
				c-5.16-2.52-12.21-4.37-21.14-5.57c-8.94-1.19-20.07-1.79-33.41-1.79c-10.82,0-20.48,0.44-28.97,1.32
				c-8.49,0.88-15.83,2.23-21.99,4.06c-6.17,1.83-11.26,4.12-15.29,6.89c-4.03,2.77-7.02,6.04-8.97,9.82
				c-1.95,3.77-2.93,8.12-2.93,13.02c0,4.78,0.97,9.03,2.93,12.74c1.95,3.71,4.94,6.92,8.97,9.63c4.03,2.71,9.12,4.94,15.29,6.7
				c6.16,1.76,13.5,3.09,21.99,3.96c8.49,0.88,18.15,1.32,28.97,1.32c15.86,0,28.94-0.88,39.26-2.64
				c10.32-1.76,18.09-4.5,23.31-8.21c5.22-3.71,8.15-8.52,8.78-14.44l18.88,7.93c-1.89,8.18-5.03,15.45-9.44,21.8
				c-4.41,6.36-10.48,11.73-18.21,16.14c-7.74,4.41-17.43,7.74-29.07,10c-11.64,2.27-25.64,3.4-42,3.4
				c-14.85,0-28.38-0.94-40.58-2.83c-12.21-1.89-23-4.69-32.37-8.4c-9.38-3.71-17.24-8.3-23.59-13.78
				c-6.36-5.47-11.17-11.83-14.44-19.07c-3.27-7.23-4.91-15.32-4.91-24.25C54.25,242.54,55.95,234.37,59.35,227.07z M172.98,241.22
				l124.01,0l0,76.07l-36.62,0l-5.47-29.82l0-17.93l-81.92,0L172.98,241.22z"/>
			<path class="st0" d="M301.8,185.16h31.9l0,132.13h-31.9L301.8,185.16z M323.88,185.16l57.57,0v27.18l-57.57,0V185.16z
				 M323.88,236.5l50.4,0v26.99l-50.4,0V236.5z M323.88,289.92h59.08v27.37l-59.08,0V289.92z"/>
			<path class="st0" d="M384.59,185.16l97.02,0l0,27.18l-97.02,0V185.16z M416.67,195.73l32.28,0l0,121.56h-32.28L416.67,195.73z"/>
			<path class="st0" d="M506.52,185.16l41.9,0v132.13h-41.9L506.52,185.16z M626.2,275.77l-90.04,0v-30.58l82.87,0
				c3.27,0,6.16-0.31,8.68-0.94c2.52-0.63,4.56-1.54,6.13-2.74c1.57-1.2,2.77-2.74,3.59-4.62c0.82-1.89,1.23-4.03,1.23-6.42
				c0-2.52-0.41-4.69-1.23-6.51c-0.82-1.82-2.05-3.36-3.68-4.62c-1.64-1.26-3.65-2.17-6.04-2.74c-2.39-0.57-5.28-0.85-8.68-0.85
				l-82.87,0v-30.58l90.23,0c8.93,0,16.8,1.01,23.59,3.02c6.8,2.02,12.46,4.94,16.99,8.78c4.53,3.84,7.96,8.43,10.29,13.78
				c2.33,5.35,3.49,11.36,3.49,18.03c0,8.43-2.11,15.95-6.32,22.56c-4.22,6.61-10.38,11.73-18.5,15.38
				c-8.12,3.65-17.96,5.47-29.54,5.47L626.2,275.77z M619.97,256.89l67.39,60.4l-54.55,0l-57.38-52.85L619.97,256.89z"/>
			<path class="st0" d="M692.93,185.18l32.28,0l0,132.13h-32.28L692.93,185.18z"/>
			<path class="st0" d="M732.37,185.18l32.28,0l0,132.13h-32.28L732.37,185.18z M787.4,288.44c2.83-1.01,5.32-2.45,7.46-4.34
				c2.14-1.89,3.9-4.37,5.29-7.46c1.38-3.08,2.42-6.7,3.12-10.85c0.69-4.15,1.04-8.81,1.04-13.97c0-5.29-0.35-10.07-1.04-14.34
				c-0.69-4.28-1.73-7.99-3.12-11.14c-1.39-3.14-3.15-5.72-5.29-7.74c-2.14-2.01-4.62-3.55-7.46-4.62c-2.83-1.07-6.01-1.6-9.53-1.6
				h-20.39l1.32-27.18h19.25c7.55,0,14.5,0.91,20.86,2.74c6.35,1.83,11.92,4.56,16.7,8.21c4.78,3.65,8.81,8.15,12.08,13.5
				c3.27,5.35,5.76,11.58,7.46,18.69c1.7,7.11,2.55,14.94,2.55,23.5c0,8.43-0.85,16.14-2.55,23.12c-1.7,6.98-4.18,13.09-7.46,18.31
				c-3.27,5.22-7.3,9.63-12.08,13.21c-4.78,3.59-10.32,6.29-16.61,8.12c-6.29,1.82-13.28,2.74-20.95,2.74h-21.9l2.27-27.37h19.44
				C781.39,289.94,784.57,289.44,787.4,288.44z"/>
			<path class="st0" d="M939.85,317.13c-13.15-1.89-24.73-4.69-34.73-8.4c-10-3.71-18.37-8.3-25.11-13.78
				c-6.73-5.47-11.83-11.83-15.29-19.07c-3.46-7.23-5.19-15.32-5.19-24.25c0-9.06,1.7-17.24,5.1-24.54
				c3.4-7.3,8.49-13.71,15.29-19.25c6.79-5.54,15.2-10.19,25.2-13.97c10-3.78,21.58-6.61,34.73-8.49
				c13.15-1.89,27.84-2.83,44.08-2.83c16.23,0,30.92,0.94,44.07,2.83c13.15,1.89,24.73,4.72,34.73,8.49
				c10,3.77,18.4,8.43,25.2,13.97c6.79,5.54,11.89,11.96,15.29,19.25c3.4,7.3,5.1,15.48,5.1,24.54c0,8.94-1.73,17.02-5.19,24.25
				c-3.46,7.24-8.56,13.59-15.29,19.07c-6.73,5.47-15.1,10.07-25.11,13.78c-10,3.71-21.58,6.51-34.73,8.4
				c-13.15,1.89-27.84,2.83-44.07,2.83S952.99,319.01,939.85,317.13z M1012.9,284.66c8.49-0.88,15.82-2.2,21.99-3.96
				c6.16-1.76,11.26-3.99,15.29-6.7c4.02-2.7,7.01-5.91,8.96-9.63c1.95-3.71,2.93-7.96,2.93-12.74c0-4.91-0.98-9.25-2.93-13.02
				c-1.95-3.78-4.94-7.05-8.96-9.82c-4.03-2.77-9.13-5.06-15.29-6.89c-6.17-1.82-13.5-3.18-21.99-4.06
				c-8.49-0.88-18.15-1.32-28.97-1.32c-10.82,0-20.48,0.44-28.98,1.32c-8.49,0.88-15.83,2.23-21.99,4.06
				c-6.17,1.83-11.26,4.12-15.29,6.89c-4.03,2.77-7.02,6.04-8.97,9.82c-1.95,3.77-2.93,8.12-2.93,13.02c0,4.78,0.97,9.03,2.93,12.74
				c1.95,3.71,4.94,6.92,8.97,9.63c4.03,2.71,9.12,4.94,15.29,6.7c6.16,1.76,13.5,3.09,21.99,3.96c8.5,0.88,18.15,1.32,28.98,1.32
				C994.74,285.98,1004.4,285.54,1012.9,284.66z"/>
			<path class="st0" d="M1112.09,185.18l34.92,0l0,132.13h-34.92V185.18z M1135.87,185.18l71.73,0v28.31l-71.73,0V185.18z
				 M1135.87,242l62.1,0v28.31l-62.1,0V242z"/>
		</g>
		<path class="st0" d="M99.55,944.94c2.01,3.52,5.52,6.47,10.55,8.85c5.02,2.39,12.02,4.18,21,5.37c8.98,1.2,20.25,1.79,33.81,1.79
			c13.18,0,24.2-0.22,33.06-0.66c8.85-0.44,15.85-1.13,21-2.07c5.15-0.94,8.85-2.1,11.11-3.48c2.26-1.38,3.39-3.08,3.39-5.09
			c0-2.26-0.75-4.02-2.26-5.27c-1.51-1.25-4.52-2.17-9.04-2.73c-4.52-0.57-11.3-0.97-20.34-1.22l-81.18-2.45
			c-11.68-0.38-21.69-1.51-30.04-3.39c-8.35-1.88-15.19-4.46-20.53-7.72c-5.34-3.26-9.26-7.19-11.77-11.77
			c-2.51-4.58-3.77-9.7-3.77-15.35c0-7.41,2.17-13.91,6.5-19.49c4.33-5.59,10.99-10.26,19.97-14.03c8.98-3.77,20.44-6.59,34.37-8.48
			c13.94-1.88,30.45-2.83,49.54-2.83c21.47,0,39.87,1.38,55.19,4.14c15.32,2.76,27.62,6.94,36.92,12.53
			c9.29,5.59,15.57,12.53,18.84,20.81l-48.78,7.72c-2.51-4.77-8.6-8.32-18.27-10.64c-9.67-2.32-24.3-3.48-43.89-3.48
			c-12.56,0-23.01,0.22-31.36,0.66c-8.35,0.44-14.91,1.1-19.68,1.98c-4.77,0.88-8.16,2.01-10.17,3.39c-2.01,1.38-3.01,3.01-3.01,4.9
			c0,2.01,0.85,3.64,2.54,4.9c1.7,1.26,4.61,2.17,8.76,2.73s10.04,0.97,17.7,1.22l85.13,2.45c14.94,0.5,27.18,2.32,36.73,5.46
			c9.54,3.14,16.6,7.41,21.19,12.81c4.58,5.4,6.87,11.8,6.87,19.21c0,7.03-2.01,13.41-6.03,19.12
			c-4.02,5.72-10.52,10.61-19.49,14.69c-8.98,4.08-20.78,7.19-35.41,9.32c-14.63,2.13-32.56,3.2-53.77,3.2
			c-16.32,0-30.98-0.82-43.98-2.45c-13-1.63-24.27-4.11-33.81-7.44c-9.54-3.33-17.33-7.44-23.36-12.34
			c-6.03-4.9-10.36-10.61-13-17.14L99.55,944.94z"/>
		<path class="st0" d="M264.81,857.55h113.58v28.25H264.81V857.55z M303.8,864.89h34.85v124.5H303.8V864.89z"/>
		<path class="st0" d="M403.2,883.35h3.39l-21.66,106.04h-28.25l32.21-131.85h33.9l32.21,131.85h-30.14L403.2,883.35z
			 M378.15,940.42h56.5l-5.84,25.8h-44.64L378.15,940.42z"/>
		<path class="st0" d="M495.68,946.26h-26.93l-34.47-88.71h31.08l20.34,58.2h-4.71l19.21-58.2h29.95L495.68,946.26z M467.05,927.05
			h30.14v62.34h-30.14V927.05z"/>
		<path class="st0" d="M581.67,944.38c1.63,4.02,4.49,7.35,8.57,9.98c4.08,2.64,9.7,4.61,16.86,5.93
			c7.16,1.32,16.07,1.98,26.75,1.98c9.92,0,18.27-0.25,25.05-0.75c6.78-0.5,12.18-1.22,16.2-2.17c4.02-0.94,6.87-2.1,8.57-3.48
			c1.69-1.38,2.54-3.08,2.54-5.09c0-2.38-0.69-4.3-2.07-5.74c-1.38-1.44-4.08-2.54-8.1-3.3c-4.02-0.75-9.98-1.32-17.89-1.7
			l-58.95-2.45c-9.92-0.63-18.49-1.91-25.71-3.86c-7.22-1.95-13.19-4.52-17.89-7.72c-4.71-3.2-8.16-7.06-10.36-11.58
			c-2.2-4.52-3.3-9.61-3.3-15.26c0-7.03,1.85-13.31,5.56-18.84c3.7-5.52,9.35-10.14,16.95-13.84c7.6-3.7,17.14-6.53,28.63-8.48
			c11.49-1.95,24.89-2.92,40.21-2.92c18.08,0,33.46,1.41,46.15,4.24c12.68,2.83,22.82,7.1,30.42,12.81
			c7.6,5.72,12.71,12.9,15.35,21.57l-43.7,6.59c-2.14-5.4-6.94-9.35-14.41-11.87c-7.47-2.51-18.81-3.77-34-3.77
			c-9.42,0-17.27,0.22-23.54,0.66c-6.28,0.44-11.3,1.13-15.07,2.07c-3.77,0.94-6.44,2.14-8.01,3.58c-1.57,1.45-2.35,3.11-2.35,4.99
			c0,2.14,0.78,3.89,2.35,5.27c1.57,1.38,4.17,2.45,7.82,3.2c3.64,0.75,8.91,1.38,15.82,1.88l61.4,2.26
			c13.18,0.88,24.01,2.92,32.49,6.12c8.48,3.2,14.72,7.47,18.74,12.81c4.02,5.34,6.03,11.77,6.03,19.31
			c0,6.91-1.76,13.15-5.27,18.74c-3.52,5.59-9.11,10.33-16.76,14.22c-7.66,3.89-17.49,6.87-29.48,8.95
			c-11.99,2.07-26.59,3.11-43.79,3.11c-13.94,0-26.37-0.85-37.29-2.54c-10.92-1.7-20.34-4.24-28.25-7.63s-14.35-7.63-19.31-12.71
			c-4.96-5.09-8.51-11.08-10.64-17.99L581.67,944.38z"/>
		<path class="st0" d="M767.82,883.35h3.39l-21.66,106.04H721.3l32.21-131.85h33.9l32.21,131.85h-30.14L767.82,883.35z
			 M742.77,940.42h56.5l-5.84,25.8H748.8L742.77,940.42z"/>
		<path class="st0" d="M819.3,857.55h38.24v131.85H819.3V857.55z M844.35,857.55h105.67v30.14H844.35V857.55z M844.92,914.62h93.8
			v29.95h-93.8V914.62z"/>
		<path class="st0" d="M954.22,857.55h31.83v131.85h-31.83V857.55z M976.26,857.55h57.45v27.12h-57.45V857.55z M976.26,908.78h50.29
			v26.93h-50.29V908.78z M976.26,962.08h58.95v27.31h-58.95V962.08z"/>
	</g>
</g>
</svg>
